<svg xmlns="http://www.w3.org/2000/svg" xmlns:xlink="http://www.w3.org/1999/xlink" width="1536pt" height="476pt" viewBox="0.00 0.00 1536.38 476.00">
<g id="graph0" class="graph" transform="scale(1 1) rotate(0) translate(4 472)">
<title>G</title>
<polygon fill="white" stroke="none" points="-4,4 -4,-472 1532.38,-472 1532.38,4 -4,4"/>
<!-- 7p8814g62bybwa8blmaqr9piv3vjwan5&#45;curl&#45;8.11.1&#45;bin -->
<g id="node1" class="node">
<title>7p8814g62bybwa8blmaqr9piv3vjwan5-curl-8.11.1-bin</title>
<polygon fill="#ff0000" stroke="black" points="860.99,-36 761.01,-36 761.01,0 860.99,0 860.99,-36"/>
<text text-anchor="middle" x="811" y="-13.8" font-family="Times,serif" font-size="14.00">curl-8.11.1-bin</text>
</g>
<!-- afdaxacrxy5jgh5pmm3a2xn3hny6wdq7&#45;zstd&#45;1.5.6 -->
<g id="node2" class="node">
<title>afdaxacrxy5jgh5pmm3a2xn3hny6wdq7-zstd-1.5.6</title>
<polygon fill="#ff0000" stroke="black" points="473.61,-180 402.39,-180 402.39,-144 473.61,-144 473.61,-180"/>
<text text-anchor="middle" x="438" y="-157.8" font-family="Times,serif" font-size="14.00">zstd-1.5.6</text>
</g>
<!-- afdaxacrxy5jgh5pmm3a2xn3hny6wdq7&#45;zstd&#45;1.5.6&#45;&gt;7p8814g62bybwa8blmaqr9piv3vjwan5&#45;curl&#45;8.11.1&#45;bin -->
<g id="edge1" class="edge">
<title>afdaxacrxy5jgh5pmm3a2xn3hny6wdq7-zstd-1.5.6-&gt;7p8814g62bybwa8blmaqr9piv3vjwan5-curl-8.11.1-bin</title>
<path fill="none" stroke="black" d="M474.1,-147.26C539.24,-122.46 676.83,-70.08 754.52,-40.5"/>
<polygon fill="black" stroke="black" points="755.55,-43.85 763.65,-37.02 753.06,-37.31 755.55,-43.85"/>
</g>
<!-- s0h8qpiflqcrgxd4fl3p1wyr371x274r&#45;curl&#45;8.11.1 -->
<g id="node11" class="node">
<title>s0h8qpiflqcrgxd4fl3p1wyr371x274r-curl-8.11.1</title>
<polygon fill="#ff0000" stroke="black" points="849.71,-108 772.29,-108 772.29,-72 849.71,-72 849.71,-108"/>
<text text-anchor="middle" x="811" y="-85.8" font-family="Times,serif" font-size="14.00">curl-8.11.1</text>
</g>
<!-- afdaxacrxy5jgh5pmm3a2xn3hny6wdq7&#45;zstd&#45;1.5.6&#45;&gt;s0h8qpiflqcrgxd4fl3p1wyr371x274r&#45;curl&#45;8.11.1 -->
<g id="edge39" class="edge">
<title>afdaxacrxy5jgh5pmm3a2xn3hny6wdq7-zstd-1.5.6-&gt;s0h8qpiflqcrgxd4fl3p1wyr371x274r-curl-8.11.1</title>
<path fill="none" stroke="green" d="M473.84,-148.02C478.57,-146.55 483.37,-145.16 488,-144 582.97,-120.24 696.4,-104.45 760.43,-96.67"/>
<polygon fill="green" stroke="green" points="760.78,-100.16 770.29,-95.49 759.95,-93.21 760.78,-100.16"/>
</g>
<!-- b4hmjzgk6w13525nwgb04xpmd71g4nbx&#45;krb5&#45;1.21.3&#45;lib -->
<g id="node3" class="node">
<title>b4hmjzgk6w13525nwgb04xpmd71g4nbx-krb5-1.21.3-lib</title>
<polygon fill="#ff0000" stroke="black" points="712.38,-180 611.62,-180 611.62,-144 712.38,-144 712.38,-180"/>
<text text-anchor="middle" x="662" y="-157.8" font-family="Times,serif" font-size="14.00">krb5-1.21.3-lib</text>
</g>
<!-- b4hmjzgk6w13525nwgb04xpmd71g4nbx&#45;krb5&#45;1.21.3&#45;lib&#45;&gt;7p8814g62bybwa8blmaqr9piv3vjwan5&#45;curl&#45;8.11.1&#45;bin -->
<g id="edge2" class="edge">
<title>b4hmjzgk6w13525nwgb04xpmd71g4nbx-krb5-1.21.3-lib-&gt;7p8814g62bybwa8blmaqr9piv3vjwan5-curl-8.11.1-bin</title>
<path fill="none" stroke="red" d="M671.62,-143.74C682.87,-124.6 702.94,-93.59 726,-72 738.05,-60.71 752.86,-50.51 766.72,-42.14"/>
<polygon fill="red" stroke="red" points="768.41,-45.2 775.28,-37.14 764.88,-39.16 768.41,-45.2"/>
</g>
<!-- b4hmjzgk6w13525nwgb04xpmd71g4nbx&#45;krb5&#45;1.21.3&#45;lib&#45;&gt;s0h8qpiflqcrgxd4fl3p1wyr371x274r&#45;curl&#45;8.11.1 -->
<g id="edge40" class="edge">
<title>b4hmjzgk6w13525nwgb04xpmd71g4nbx-krb5-1.21.3-lib-&gt;s0h8qpiflqcrgxd4fl3p1wyr371x274r-curl-8.11.1</title>
<path fill="none" stroke="blue" d="M699.21,-143.52C718.76,-134.34 742.91,-122.99 763.76,-113.2"/>
<polygon fill="blue" stroke="blue" points="765.07,-116.45 772.63,-109.03 762.09,-110.11 765.07,-116.45"/>
</g>
<!-- l5g2v1jgfyf3j0jp9iv5b79fi8yrwzpp&#45;zlib&#45;1.3.1 -->
<g id="node4" class="node">
<title>l5g2v1jgfyf3j0jp9iv5b79fi8yrwzpp-zlib-1.3.1</title>
<polygon fill="#ff0000" stroke="black" points="1054.83,-252 985.17,-252 985.17,-216 1054.83,-216 1054.83,-252"/>
<text text-anchor="middle" x="1020" y="-229.8" font-family="Times,serif" font-size="14.00">zlib-1.3.1</text>
</g>
<!-- l5g2v1jgfyf3j0jp9iv5b79fi8yrwzpp&#45;zlib&#45;1.3.1&#45;&gt;7p8814g62bybwa8blmaqr9piv3vjwan5&#45;curl&#45;8.11.1&#45;bin -->
<g id="edge3" class="edge">
<title>l5g2v1jgfyf3j0jp9iv5b79fi8yrwzpp-zlib-1.3.1-&gt;7p8814g62bybwa8blmaqr9piv3vjwan5-curl-8.11.1-bin</title>
<path fill="none" stroke="green" d="M1015.42,-215.84C1009.7,-196.8 998.5,-165.86 981,-144 945.91,-100.15 891.88,-63.99 854.18,-42.04"/>
<polygon fill="green" stroke="green" points="856.23,-39.18 845.81,-37.25 852.75,-45.25 856.23,-39.18"/>
</g>
<!-- lsvh9q7b0qcjwxd7m2ihby4r3hn0dw9i&#45;libssh2&#45;1.11.1 -->
<g id="node6" class="node">
<title>lsvh9q7b0qcjwxd7m2ihby4r3hn0dw9i-libssh2-1.11.1</title>
<polygon fill="#ff0000" stroke="black" points="939.67,-180 844.33,-180 844.33,-144 939.67,-144 939.67,-180"/>
<text text-anchor="middle" x="892" y="-157.8" font-family="Times,serif" font-size="14.00">libssh2-1.11.1</text>
</g>
<!-- l5g2v1jgfyf3j0jp9iv5b79fi8yrwzpp&#45;zlib&#45;1.3.1&#45;&gt;lsvh9q7b0qcjwxd7m2ihby4r3hn0dw9i&#45;libssh2&#45;1.11.1 -->
<g id="edge31" class="edge">
<title>l5g2v1jgfyf3j0jp9iv5b79fi8yrwzpp-zlib-1.3.1-&gt;lsvh9q7b0qcjwxd7m2ihby4r3hn0dw9i-libssh2-1.11.1</title>
<path fill="none" stroke="black" d="M988.03,-215.52C971.57,-206.51 951.29,-195.42 933.62,-185.76"/>
<polygon fill="black" stroke="black" points="935.34,-182.71 924.89,-180.99 931.98,-188.86 935.34,-182.71"/>
</g>
<!-- l5g2v1jgfyf3j0jp9iv5b79fi8yrwzpp&#45;zlib&#45;1.3.1&#45;&gt;s0h8qpiflqcrgxd4fl3p1wyr371x274r&#45;curl&#45;8.11.1 -->
<g id="edge41" class="edge">
<title>l5g2v1jgfyf3j0jp9iv5b79fi8yrwzpp-zlib-1.3.1-&gt;s0h8qpiflqcrgxd4fl3p1wyr371x274r-curl-8.11.1</title>
<path fill="none" stroke="magenta" d="M1010.1,-215.63C998,-195.82 975.79,-163.62 949,-144 922.79,-124.81 888.77,-111.64 861.06,-103.23"/>
<polygon fill="magenta" stroke="magenta" points="862.04,-99.87 851.46,-100.44 860.09,-106.59 862.04,-99.87"/>
</g>
<!-- lai3ymn295qmvqdbgiqs06xl9l9j21w7&#45;libpsl&#45;0.21.5 -->
<g id="node5" class="node">
<title>lai3ymn295qmvqdbgiqs06xl9l9j21w7-libpsl-0.21.5</title>
<polygon fill="#ff0000" stroke="black" points="323.39,-252 236.61,-252 236.61,-216 323.39,-216 323.39,-252"/>
<text text-anchor="middle" x="280" y="-229.8" font-family="Times,serif" font-size="14.00">libpsl-0.21.5</text>
</g>
<!-- lai3ymn295qmvqdbgiqs06xl9l9j21w7&#45;libpsl&#45;0.21.5&#45;&gt;7p8814g62bybwa8blmaqr9piv3vjwan5&#45;curl&#45;8.11.1&#45;bin -->
<g id="edge4" class="edge">
<title>lai3ymn295qmvqdbgiqs06xl9l9j21w7-libpsl-0.21.5-&gt;7p8814g62bybwa8blmaqr9piv3vjwan5-curl-8.11.1-bin</title>
<path fill="none" stroke="blue" d="M285.69,-215.61C293.16,-195.46 308.19,-162.65 332,-144 456.96,-46.12 650.92,-24.41 749.29,-19.91"/>
<polygon fill="blue" stroke="blue" points="749.15,-23.42 759,-19.51 748.87,-16.42 749.15,-23.42"/>
</g>
<!-- lai3ymn295qmvqdbgiqs06xl9l9j21w7&#45;libpsl&#45;0.21.5&#45;&gt;s0h8qpiflqcrgxd4fl3p1wyr371x274r&#45;curl&#45;8.11.1 -->
<g id="edge42" class="edge">
<title>lai3ymn295qmvqdbgiqs06xl9l9j21w7-libpsl-0.21.5-&gt;s0h8qpiflqcrgxd4fl3p1wyr371x274r-curl-8.11.1</title>
<path fill="none" stroke="burlywood" d="M296.07,-215.54C316.43,-194.66 353.61,-160.5 393,-144 458.34,-116.64 664.05,-100.34 760.35,-94.03"/>
<polygon fill="burlywood" stroke="burlywood" points="760.55,-97.52 770.3,-93.39 760.1,-90.54 760.55,-97.52"/>
</g>
<!-- lsvh9q7b0qcjwxd7m2ihby4r3hn0dw9i&#45;libssh2&#45;1.11.1&#45;&gt;7p8814g62bybwa8blmaqr9piv3vjwan5&#45;curl&#45;8.11.1&#45;bin -->
<g id="edge5" class="edge">
<title>lsvh9q7b0qcjwxd7m2ihby4r3hn0dw9i-libssh2-1.11.1-&gt;7p8814g62bybwa8blmaqr9piv3vjwan5-curl-8.11.1-bin</title>
<path fill="none" stroke="magenta" d="M887.71,-143.73C882.62,-125.13 873.02,-95.1 859,-72 853.07,-62.23 845.2,-52.64 837.55,-44.36"/>
<polygon fill="magenta" stroke="magenta" points="840.26,-42.12 830.8,-37.34 835.21,-46.97 840.26,-42.12"/>
</g>
<!-- lsvh9q7b0qcjwxd7m2ihby4r3hn0dw9i&#45;libssh2&#45;1.11.1&#45;&gt;s0h8qpiflqcrgxd4fl3p1wyr371x274r&#45;curl&#45;8.11.1 -->
<g id="edge43" class="edge">
<title>lsvh9q7b0qcjwxd7m2ihby4r3hn0dw9i-libssh2-1.11.1-&gt;s0h8qpiflqcrgxd4fl3p1wyr371x274r-curl-8.11.1</title>
<path fill="none" stroke="black" d="M871.98,-143.7C862.24,-135.28 850.36,-125.02 839.69,-115.79"/>
<polygon fill="black" stroke="black" points="842.07,-113.23 832.22,-109.34 837.5,-118.52 842.07,-113.23"/>
</g>
<!-- m70hxn0ph0gc3gnvkpjb9631655nnw6z&#45;brotli&#45;1.1.0&#45;lib -->
<g id="node7" class="node">
<title>m70hxn0ph0gc3gnvkpjb9631655nnw6z-brotli-1.1.0-lib</title>
<polygon fill="#ff0000" stroke="black" points="1132.22,-180 1033.78,-180 1033.78,-144 1132.22,-144 1132.22,-180"/>
<text text-anchor="middle" x="1083" y="-157.8" font-family="Times,serif" font-size="14.00">brotli-1.1.0-lib</text>
</g>
<!-- m70hxn0ph0gc3gnvkpjb9631655nnw6z&#45;brotli&#45;1.1.0&#45;lib&#45;&gt;7p8814g62bybwa8blmaqr9piv3vjwan5&#45;curl&#45;8.11.1&#45;bin -->
<g id="edge6" class="edge">
<title>m70hxn0ph0gc3gnvkpjb9631655nnw6z-brotli-1.1.0-lib-&gt;7p8814g62bybwa8blmaqr9piv3vjwan5-curl-8.11.1-bin</title>
<path fill="none" stroke="burlywood" d="M1075.43,-143.78C1065.61,-123.48 1046.53,-90.21 1020,-72 976.28,-41.99 916.94,-28.96 872.66,-23.31"/>
<polygon fill="burlywood" stroke="burlywood" points="873.31,-19.86 862.97,-22.18 872.49,-26.82 873.31,-19.86"/>
</g>
<!-- m70hxn0ph0gc3gnvkpjb9631655nnw6z&#45;brotli&#45;1.1.0&#45;lib&#45;&gt;s0h8qpiflqcrgxd4fl3p1wyr371x274r&#45;curl&#45;8.11.1 -->
<g id="edge44" class="edge">
<title>m70hxn0ph0gc3gnvkpjb9631655nnw6z-brotli-1.1.0-lib-&gt;s0h8qpiflqcrgxd4fl3p1wyr371x274r-curl-8.11.1</title>
<path fill="none" stroke="red" d="M1033.43,-148.24C984.53,-135.66 910.17,-116.52 861.09,-103.89"/>
<polygon fill="red" stroke="red" points="862.12,-100.54 851.57,-101.44 860.38,-107.32 862.12,-100.54"/>
</g>
<!-- nqb2ns2d1lahnd5ncwmn6k84qfd7vx2k&#45;glibc&#45;2.40&#45;36 -->
<g id="node8" class="node">
<title>nqb2ns2d1lahnd5ncwmn6k84qfd7vx2k-glibc-2.40-36</title>
<polygon fill="#ff0000" stroke="black" points="964.91,-324 873.09,-324 873.09,-288 964.91,-288 964.91,-324"/>
<text text-anchor="middle" x="919" y="-301.8" font-family="Times,serif" font-size="14.00">glibc-2.40-36</text>
</g>
<!-- nqb2ns2d1lahnd5ncwmn6k84qfd7vx2k&#45;glibc&#45;2.40&#45;36&#45;&gt;7p8814g62bybwa8blmaqr9piv3vjwan5&#45;curl&#45;8.11.1&#45;bin -->
<g id="edge7" class="edge">
<title>nqb2ns2d1lahnd5ncwmn6k84qfd7vx2k-glibc-2.40-36-&gt;7p8814g62bybwa8blmaqr9piv3vjwan5-curl-8.11.1-bin</title>
<path fill="none" stroke="black" d="M965.25,-302.18C1078.5,-293.43 1354.98,-259.91 1277,-144 1231.75,-76.74 988.54,-39.73 872.58,-25.68"/>
<polygon fill="black" stroke="black" points="873.28,-22.24 862.93,-24.53 872.45,-29.19 873.28,-22.24"/>
</g>
<!-- nqb2ns2d1lahnd5ncwmn6k84qfd7vx2k&#45;glibc&#45;2.40&#45;36&#45;&gt;afdaxacrxy5jgh5pmm3a2xn3hny6wdq7&#45;zstd&#45;1.5.6 -->
<g id="edge13" class="edge">
<title>nqb2ns2d1lahnd5ncwmn6k84qfd7vx2k-glibc-2.40-36-&gt;afdaxacrxy5jgh5pmm3a2xn3hny6wdq7-zstd-1.5.6</title>
<path fill="none" stroke="black" d="M872.62,-302.73C781.22,-297.64 581.48,-283.2 521,-252 493.28,-237.7 469.93,-210.3 455.13,-189.66"/>
<polygon fill="black" stroke="black" points="458.18,-187.92 449.62,-181.69 452.42,-191.9 458.18,-187.92"/>
</g>
<!-- nqb2ns2d1lahnd5ncwmn6k84qfd7vx2k&#45;glibc&#45;2.40&#45;36&#45;&gt;b4hmjzgk6w13525nwgb04xpmd71g4nbx&#45;krb5&#45;1.21.3&#45;lib -->
<g id="edge18" class="edge">
<title>nqb2ns2d1lahnd5ncwmn6k84qfd7vx2k-glibc-2.40-36-&gt;b4hmjzgk6w13525nwgb04xpmd71g4nbx-krb5-1.21.3-lib</title>
<path fill="none" stroke="burlywood" d="M872.63,-290.25C847.65,-281.2 816.93,-268.22 792,-252 772.5,-239.31 772.65,-229.9 754,-216 739.21,-204.98 721.92,-194.47 706.35,-185.76"/>
<polygon fill="burlywood" stroke="burlywood" points="708.19,-182.78 697.74,-181.04 704.83,-188.92 708.19,-182.78"/>
</g>
<!-- nqb2ns2d1lahnd5ncwmn6k84qfd7vx2k&#45;glibc&#45;2.40&#45;36&#45;&gt;l5g2v1jgfyf3j0jp9iv5b79fi8yrwzpp&#45;zlib&#45;1.3.1 -->
<g id="edge26" class="edge">
<title>nqb2ns2d1lahnd5ncwmn6k84qfd7vx2k-glibc-2.40-36-&gt;l5g2v1jgfyf3j0jp9iv5b79fi8yrwzpp-zlib-1.3.1</title>
<path fill="none" stroke="red" d="M944.23,-287.52C956.85,-278.76 972.32,-268.04 985.98,-258.58"/>
<polygon fill="red" stroke="red" points="987.63,-261.7 993.85,-253.12 983.64,-255.94 987.63,-261.7"/>
</g>
<!-- nqb2ns2d1lahnd5ncwmn6k84qfd7vx2k&#45;glibc&#45;2.40&#45;36&#45;&gt;lai3ymn295qmvqdbgiqs06xl9l9j21w7&#45;libpsl&#45;0.21.5 -->
<g id="edge29" class="edge">
<title>nqb2ns2d1lahnd5ncwmn6k84qfd7vx2k-glibc-2.40-36-&gt;lai3ymn295qmvqdbgiqs06xl9l9j21w7-libpsl-0.21.5</title>
<path fill="none" stroke="magenta" d="M872.91,-304.27C775.16,-301.98 539.92,-292.59 335.04,-252.12"/>
<polygon fill="magenta" stroke="magenta" points="335.74,-248.69 325.25,-250.15 334.36,-255.56 335.74,-248.69"/>
</g>
<!-- nqb2ns2d1lahnd5ncwmn6k84qfd7vx2k&#45;glibc&#45;2.40&#45;36&#45;&gt;lsvh9q7b0qcjwxd7m2ihby4r3hn0dw9i&#45;libssh2&#45;1.11.1 -->
<g id="edge32" class="edge">
<title>nqb2ns2d1lahnd5ncwmn6k84qfd7vx2k-glibc-2.40-36-&gt;lsvh9q7b0qcjwxd7m2ihby4r3hn0dw9i-libssh2-1.11.1</title>
<path fill="none" stroke="red" d="M926.59,-287.51C933.41,-269.25 941.19,-239.98 933,-216 929.7,-206.35 923.85,-197.09 917.59,-189.09"/>
<polygon fill="red" stroke="red" points="920.28,-186.85 911.15,-181.48 914.94,-191.37 920.28,-186.85"/>
</g>
<!-- nqb2ns2d1lahnd5ncwmn6k84qfd7vx2k&#45;glibc&#45;2.40&#45;36&#45;&gt;m70hxn0ph0gc3gnvkpjb9631655nnw6z&#45;brotli&#45;1.1.0&#45;lib -->
<g id="edge34" class="edge">
<title>nqb2ns2d1lahnd5ncwmn6k84qfd7vx2k-glibc-2.40-36-&gt;m70hxn0ph0gc3gnvkpjb9631655nnw6z-brotli-1.1.0-lib</title>
<path fill="none" stroke="blue" d="M965.14,-299.86C997.45,-293.8 1039.13,-280.63 1064,-252 1078.35,-235.49 1082.73,-210.8 1083.74,-191.61"/>
<polygon fill="blue" stroke="blue" points="1087.23,-191.8 1083.95,-181.73 1080.23,-191.65 1087.23,-191.8"/>
</g>
<!-- r3b4raa1z7pj73j4sri2fpwp0rsn6zhb&#45;nghttp2&#45;1.64.0&#45;lib -->
<g id="node10" class="node">
<title>r3b4raa1z7pj73j4sri2fpwp0rsn6zhb-nghttp2-1.64.0-lib</title>
<polygon fill="#ff0000" stroke="black" points="1267.94,-180 1150.06,-180 1150.06,-144 1267.94,-144 1267.94,-180"/>
<text text-anchor="middle" x="1209" y="-157.8" font-family="Times,serif" font-size="14.00">nghttp2-1.64.0-lib</text>
</g>
<!-- nqb2ns2d1lahnd5ncwmn6k84qfd7vx2k&#45;glibc&#45;2.40&#45;36&#45;&gt;r3b4raa1z7pj73j4sri2fpwp0rsn6zhb&#45;nghttp2&#45;1.64.0&#45;lib -->
<g id="edge38" class="edge">
<title>nqb2ns2d1lahnd5ncwmn6k84qfd7vx2k-glibc-2.40-36-&gt;r3b4raa1z7pj73j4sri2fpwp0rsn6zhb-nghttp2-1.64.0-lib</title>
<path fill="none" stroke="red" d="M965.18,-294.58C999.6,-285.82 1047.16,-271.58 1086,-252 1121.06,-234.33 1156.97,-207.09 1180.86,-187.4"/>
<polygon fill="red" stroke="red" points="1182.82,-190.32 1188.25,-181.23 1178.33,-184.95 1182.82,-190.32"/>
</g>
<!-- nqb2ns2d1lahnd5ncwmn6k84qfd7vx2k&#45;glibc&#45;2.40&#45;36&#45;&gt;s0h8qpiflqcrgxd4fl3p1wyr371x274r&#45;curl&#45;8.11.1 -->
<g id="edge45" class="edge">
<title>nqb2ns2d1lahnd5ncwmn6k84qfd7vx2k-glibc-2.40-36-&gt;s0h8qpiflqcrgxd4fl3p1wyr371x274r-curl-8.11.1</title>
<path fill="none" stroke="green" d="M919.4,-287.55C918.97,-268.24 915.61,-237.07 900,-216 880.34,-189.47 855.36,-206 835,-180 821.42,-162.66 815.51,-138.23 812.94,-119.36"/>
<polygon fill="green" stroke="green" points="816.45,-119.22 811.88,-109.67 809.49,-119.99 816.45,-119.22"/>
</g>
<!-- zs44kdd3k01schy32fa916pa17gr7y68&#45;openssl&#45;3.3.2 -->
<g id="node12" class="node">
<title>zs44kdd3k01schy32fa916pa17gr7y68-openssl-3.3.2</title>
<polygon fill="#ff0000" stroke="black" points="891.33,-252 800.67,-252 800.67,-216 891.33,-216 891.33,-252"/>
<text text-anchor="middle" x="846" y="-229.8" font-family="Times,serif" font-size="14.00">openssl-3.3.2</text>
</g>
<!-- nqb2ns2d1lahnd5ncwmn6k84qfd7vx2k&#45;glibc&#45;2.40&#45;36&#45;&gt;zs44kdd3k01schy32fa916pa17gr7y68&#45;openssl&#45;3.3.2 -->
<g id="edge51" class="edge">
<title>nqb2ns2d1lahnd5ncwmn6k84qfd7vx2k-glibc-2.40-36-&gt;zs44kdd3k01schy32fa916pa17gr7y68-openssl-3.3.2</title>
<path fill="none" stroke="green" d="M900.96,-287.7C892.27,-279.37 881.69,-269.22 872.14,-260.07"/>
<polygon fill="green" stroke="green" points="874.82,-257.79 865.18,-253.39 869.98,-262.84 874.82,-257.79"/>
</g>
<!-- 4gk773fqcsv4fh2rfkhs9bgfih86fdq8&#45;gcc&#45;13.3.0&#45;lib -->
<g id="node13" class="node">
<title>4gk773fqcsv4fh2rfkhs9bgfih86fdq8-gcc-13.3.0-lib</title>
<polygon fill="#ff0000" stroke="black" points="436.27,-252 341.73,-252 341.73,-216 436.27,-216 436.27,-252"/>
<text text-anchor="middle" x="389" y="-229.8" font-family="Times,serif" font-size="14.00">gcc-13.3.0-lib</text>
</g>
<!-- nqb2ns2d1lahnd5ncwmn6k84qfd7vx2k&#45;glibc&#45;2.40&#45;36&#45;&gt;4gk773fqcsv4fh2rfkhs9bgfih86fdq8&#45;gcc&#45;13.3.0&#45;lib -->
<g id="edge15" class="edge">
<title>nqb2ns2d1lahnd5ncwmn6k84qfd7vx2k-glibc-2.40-36-&gt;4gk773fqcsv4fh2rfkhs9bgfih86fdq8-gcc-13.3.0-lib</title>
<path fill="none" stroke="green" d="M872.7,-302.22C788.12,-296.6 603.23,-281.81 450,-252 449.17,-251.84 448.34,-251.67 447.5,-251.5"/>
<polygon fill="green" stroke="green" points="448.45,-248.13 437.92,-249.34 446.91,-254.95 448.45,-248.13"/>
</g>
<!-- 5mq02cggv5riwg4n7w4amddjgv6b5fnj&#45;keyutils&#45;1.6.3&#45;lib -->
<g id="node15" class="node">
<title>5mq02cggv5riwg4n7w4amddjgv6b5fnj-keyutils-1.6.3-lib</title>
<polygon fill="#ff0000" stroke="black" points="642.22,-252 529.78,-252 529.78,-216 642.22,-216 642.22,-252"/>
<text text-anchor="middle" x="586" y="-229.8" font-family="Times,serif" font-size="14.00">keyutils-1.6.3-lib</text>
</g>
<!-- nqb2ns2d1lahnd5ncwmn6k84qfd7vx2k&#45;glibc&#45;2.40&#45;36&#45;&gt;5mq02cggv5riwg4n7w4amddjgv6b5fnj&#45;keyutils&#45;1.6.3&#45;lib -->
<g id="edge20" class="edge">
<title>nqb2ns2d1lahnd5ncwmn6k84qfd7vx2k-glibc-2.40-36-&gt;5mq02cggv5riwg4n7w4amddjgv6b5fnj-keyutils-1.6.3-lib</title>
<path fill="none" stroke="red" d="M873.01,-296.68C821.96,-287.27 736.89,-271.06 653.67,-252.31"/>
<polygon fill="red" stroke="red" points="654.48,-248.9 643.95,-250.1 652.93,-255.73 654.48,-248.9"/>
</g>
<!-- gwgqdl0242ymlikq9s9s62gkp5cvyal3&#45;bash&#45;5.2p37 -->
<g id="node16" class="node">
<title>gwgqdl0242ymlikq9s9s62gkp5cvyal3-bash-5.2p37</title>
<polygon fill="#ff0000" stroke="black" points="745.41,-252 660.59,-252 660.59,-216 745.41,-216 745.41,-252"/>
<text text-anchor="middle" x="703" y="-229.8" font-family="Times,serif" font-size="14.00">bash-5.2p37</text>
</g>
<!-- nqb2ns2d1lahnd5ncwmn6k84qfd7vx2k&#45;glibc&#45;2.40&#45;36&#45;&gt;gwgqdl0242ymlikq9s9s62gkp5cvyal3&#45;bash&#45;5.2p37 -->
<g id="edge21" class="edge">
<title>nqb2ns2d1lahnd5ncwmn6k84qfd7vx2k-glibc-2.40-36-&gt;gwgqdl0242ymlikq9s9s62gkp5cvyal3-bash-5.2p37</title>
<path fill="none" stroke="green" d="M872.66,-289.98C838.51,-278.92 791.99,-263.84 756.3,-252.27"/>
<polygon fill="green" stroke="green" points="757.63,-249.02 747.03,-249.27 755.47,-255.68 757.63,-249.02"/>
</g>
<!-- jhw7aklgrc23125ysg1mc72y8zq0lndw&#45;jq&#45;1.7.1&#45;bin -->
<g id="node17" class="node">
<title>jhw7aklgrc23125ysg1mc72y8zq0lndw-jq-1.7.1-bin</title>
<polygon fill="#ff0000" stroke="black" points="1440.05,-108 1357.95,-108 1357.95,-72 1440.05,-72 1440.05,-108"/>
<text text-anchor="middle" x="1399" y="-85.8" font-family="Times,serif" font-size="14.00">jq-1.7.1-bin</text>
</g>
<!-- nqb2ns2d1lahnd5ncwmn6k84qfd7vx2k&#45;glibc&#45;2.40&#45;36&#45;&gt;jhw7aklgrc23125ysg1mc72y8zq0lndw&#45;jq&#45;1.7.1&#45;bin -->
<g id="edge23" class="edge">
<title>nqb2ns2d1lahnd5ncwmn6k84qfd7vx2k-glibc-2.40-36-&gt;jhw7aklgrc23125ysg1mc72y8zq0lndw-jq-1.7.1-bin</title>
<path fill="none" stroke="magenta" d="M965.17,-304.18C1056.51,-301.71 1256.13,-291.77 1310,-252 1352.55,-220.58 1333.08,-189.53 1360,-144 1365.41,-134.85 1372.03,-125.36 1378.28,-116.98"/>
<polygon fill="magenta" stroke="magenta" points="1380.88,-119.34 1384.16,-109.26 1375.31,-115.09 1380.88,-119.34"/>
</g>
<!-- 8az76ng86zh4m4383qwf57kv9w0140vc&#45;oniguruma&#45;6.9.9&#45;lib -->
<g id="node18" class="node">
<title>8az76ng86zh4m4383qwf57kv9w0140vc-oniguruma-6.9.9-lib</title>
<polygon fill="#ff0000" stroke="black" points="1528.38,-252 1399.62,-252 1399.62,-216 1528.38,-216 1528.38,-252"/>
<text text-anchor="middle" x="1464" y="-229.8" font-family="Times,serif" font-size="14.00">oniguruma-6.9.9-lib</text>
</g>
<!-- nqb2ns2d1lahnd5ncwmn6k84qfd7vx2k&#45;glibc&#45;2.40&#45;36&#45;&gt;8az76ng86zh4m4383qwf57kv9w0140vc&#45;oniguruma&#45;6.9.9&#45;lib -->
<g id="edge25" class="edge">
<title>nqb2ns2d1lahnd5ncwmn6k84qfd7vx2k-glibc-2.40-36-&gt;8az76ng86zh4m4383qwf57kv9w0140vc-oniguruma-6.9.9-lib</title>
<path fill="none" stroke="black" d="M965.28,-301.32C1049.41,-294.27 1232.84,-277.31 1386,-252 1386.82,-251.86 1387.65,-251.73 1388.47,-251.58"/>
<polygon fill="black" stroke="black" points="1388.69,-255.1 1397.91,-249.88 1387.45,-248.21 1388.69,-255.1"/>
</g>
<!-- wb75941w6ygkc0ihl55gfsapcdrxm2hq&#45;jq&#45;1.7.1 -->
<g id="node19" class="node">
<title>wb75941w6ygkc0ihl55gfsapcdrxm2hq-jq-1.7.1</title>
<polygon fill="#ff0000" stroke="black" points="1428.78,-180 1369.22,-180 1369.22,-144 1428.78,-144 1428.78,-180"/>
<text text-anchor="middle" x="1399" y="-157.8" font-family="Times,serif" font-size="14.00">jq-1.7.1</text>
</g>
<!-- nqb2ns2d1lahnd5ncwmn6k84qfd7vx2k&#45;glibc&#45;2.40&#45;36&#45;&gt;wb75941w6ygkc0ihl55gfsapcdrxm2hq&#45;jq&#45;1.7.1 -->
<g id="edge50" class="edge">
<title>nqb2ns2d1lahnd5ncwmn6k84qfd7vx2k-glibc-2.40-36-&gt;wb75941w6ygkc0ihl55gfsapcdrxm2hq-jq-1.7.1</title>
<path fill="none" stroke="red" d="M965.19,-304.41C1062.77,-302.36 1286.05,-293.18 1348,-252 1369.3,-237.84 1382.75,-211.56 1390.46,-191.21"/>
<polygon fill="red" stroke="red" points="1393.76,-192.37 1393.75,-181.77 1387.15,-190.06 1393.76,-192.37"/>
</g>
<!-- qwjjm4j652ck9izaid7bz63s4hd5bnha&#45;libidn2&#45;2.3.7 -->
<g id="node9" class="node">
<title>qwjjm4j652ck9izaid7bz63s4hd5bnha-libidn2-2.3.7</title>
<polygon fill="#ff0000" stroke="black" points="376.17,-396 287.83,-396 287.83,-360 376.17,-360 376.17,-396"/>
<text text-anchor="middle" x="332" y="-373.8" font-family="Times,serif" font-size="14.00">libidn2-2.3.7</text>
</g>
<!-- qwjjm4j652ck9izaid7bz63s4hd5bnha&#45;libidn2&#45;2.3.7&#45;&gt;7p8814g62bybwa8blmaqr9piv3vjwan5&#45;curl&#45;8.11.1&#45;bin -->
<g id="edge8" class="edge">
<title>qwjjm4j652ck9izaid7bz63s4hd5bnha-libidn2-2.3.7-&gt;7p8814g62bybwa8blmaqr9piv3vjwan5-curl-8.11.1-bin</title>
<path fill="none" stroke="red" d="M287.57,-377.53C197.1,-376.06 0,-358.66 0,-235 0,-235 0,-235 0,-161 0,-85 559.71,-37.27 749.17,-23.29"/>
<polygon fill="red" stroke="red" points="749.35,-26.79 759.07,-22.57 748.84,-19.81 749.35,-26.79"/>
</g>
<!-- qwjjm4j652ck9izaid7bz63s4hd5bnha&#45;libidn2&#45;2.3.7&#45;&gt;lai3ymn295qmvqdbgiqs06xl9l9j21w7&#45;libpsl&#45;0.21.5 -->
<g id="edge30" class="edge">
<title>qwjjm4j652ck9izaid7bz63s4hd5bnha-libidn2-2.3.7-&gt;lai3ymn295qmvqdbgiqs06xl9l9j21w7-libpsl-0.21.5</title>
<path fill="none" stroke="burlywood" d="M330.12,-359.75C327.71,-341.43 322.64,-311.88 313,-288 309.41,-279.1 304.35,-270.01 299.27,-261.93"/>
<polygon fill="burlywood" stroke="burlywood" points="302.19,-260.01 293.77,-253.59 296.35,-263.86 302.19,-260.01"/>
</g>
<!-- qwjjm4j652ck9izaid7bz63s4hd5bnha&#45;libidn2&#45;2.3.7&#45;&gt;nqb2ns2d1lahnd5ncwmn6k84qfd7vx2k&#45;glibc&#45;2.40&#45;36 -->
<g id="edge36" class="edge">
<title>qwjjm4j652ck9izaid7bz63s4hd5bnha-libidn2-2.3.7-&gt;nqb2ns2d1lahnd5ncwmn6k84qfd7vx2k-glibc-2.40-36</title>
<path fill="none" stroke="burlywood" d="M376.6,-371.68C481.73,-359.15 744.93,-327.76 861.68,-313.83"/>
<polygon fill="burlywood" stroke="burlywood" points="861.83,-317.34 871.35,-312.68 861,-310.39 861.83,-317.34"/>
</g>
<!-- qwjjm4j652ck9izaid7bz63s4hd5bnha&#45;libidn2&#45;2.3.7&#45;&gt;s0h8qpiflqcrgxd4fl3p1wyr371x274r&#45;curl&#45;8.11.1 -->
<g id="edge46" class="edge">
<title>qwjjm4j652ck9izaid7bz63s4hd5bnha-libidn2-2.3.7-&gt;s0h8qpiflqcrgxd4fl3p1wyr371x274r-curl-8.11.1</title>
<path fill="none" stroke="blue" d="M376.47,-371.81C409.84,-365.7 454.5,-352.48 483,-324 518.99,-288.03 492.51,-258.16 521,-216 548.16,-175.82 560.09,-166.61 603,-144 653.08,-117.6 716.98,-103.87 760.65,-97.07"/>
<polygon fill="blue" stroke="blue" points="760.98,-100.56 770.35,-95.63 759.95,-93.64 760.98,-100.56"/>
</g>
<!-- r3b4raa1z7pj73j4sri2fpwp0rsn6zhb&#45;nghttp2&#45;1.64.0&#45;lib&#45;&gt;7p8814g62bybwa8blmaqr9piv3vjwan5&#45;curl&#45;8.11.1&#45;bin -->
<g id="edge9" class="edge">
<title>r3b4raa1z7pj73j4sri2fpwp0rsn6zhb-nghttp2-1.64.0-lib-&gt;7p8814g62bybwa8blmaqr9piv3vjwan5-curl-8.11.1-bin</title>
<path fill="none" stroke="green" d="M1183.43,-143.57C1152.93,-123.54 1099.81,-90.99 1050,-72 991.6,-49.74 921.44,-35.56 872.29,-27.53"/>
<polygon fill="green" stroke="green" points="873.13,-24.12 862.7,-26 872.03,-31.03 873.13,-24.12"/>
</g>
<!-- r3b4raa1z7pj73j4sri2fpwp0rsn6zhb&#45;nghttp2&#45;1.64.0&#45;lib&#45;&gt;s0h8qpiflqcrgxd4fl3p1wyr371x274r&#45;curl&#45;8.11.1 -->
<g id="edge47" class="edge">
<title>r3b4raa1z7pj73j4sri2fpwp0rsn6zhb-nghttp2-1.64.0-lib-&gt;s0h8qpiflqcrgxd4fl3p1wyr371x274r-curl-8.11.1</title>
<path fill="none" stroke="magenta" d="M1149.73,-145.86C1146.78,-145.21 1143.86,-144.59 1141,-144 1042.46,-123.81 926.07,-106.66 861.18,-97.69"/>
<polygon fill="magenta" stroke="magenta" points="861.94,-94.27 851.56,-96.37 860.99,-101.2 861.94,-94.27"/>
</g>
<!-- s0h8qpiflqcrgxd4fl3p1wyr371x274r&#45;curl&#45;8.11.1&#45;&gt;7p8814g62bybwa8blmaqr9piv3vjwan5&#45;curl&#45;8.11.1&#45;bin -->
<g id="edge10" class="edge">
<title>s0h8qpiflqcrgxd4fl3p1wyr371x274r-curl-8.11.1-&gt;7p8814g62bybwa8blmaqr9piv3vjwan5-curl-8.11.1-bin</title>
<path fill="none" stroke="blue" d="M811,-71.7C811,-64.41 811,-55.73 811,-47.54"/>
<polygon fill="blue" stroke="blue" points="814.5,-47.62 811,-37.62 807.5,-47.62 814.5,-47.62"/>
</g>
<!-- zs44kdd3k01schy32fa916pa17gr7y68&#45;openssl&#45;3.3.2&#45;&gt;7p8814g62bybwa8blmaqr9piv3vjwan5&#45;curl&#45;8.11.1&#45;bin -->
<g id="edge11" class="edge">
<title>zs44kdd3k01schy32fa916pa17gr7y68-openssl-3.3.2-&gt;7p8814g62bybwa8blmaqr9piv3vjwan5-curl-8.11.1-bin</title>
<path fill="none" stroke="magenta" d="M825.63,-215.61C815.19,-205.91 802.84,-193.16 794,-180 774.58,-151.07 770.03,-142.12 763,-108 759.77,-92.33 757.24,-86.93 763,-72 766.9,-61.88 773.73,-52.49 781.04,-44.51"/>
<polygon fill="magenta" stroke="magenta" points="783.42,-47.09 787.97,-37.52 778.45,-42.16 783.42,-47.09"/>
</g>
<!-- zs44kdd3k01schy32fa916pa17gr7y68&#45;openssl&#45;3.3.2&#45;&gt;b4hmjzgk6w13525nwgb04xpmd71g4nbx&#45;krb5&#45;1.21.3&#45;lib -->
<g id="edge19" class="edge">
<title>zs44kdd3k01schy32fa916pa17gr7y68-openssl-3.3.2-&gt;b4hmjzgk6w13525nwgb04xpmd71g4nbx-krb5-1.21.3-lib</title>
<path fill="none" stroke="black" d="M800.52,-215.7C775.73,-206.27 744.83,-194.51 718.51,-184.5"/>
<polygon fill="black" stroke="black" points="719.92,-181.29 709.33,-181.01 717.43,-187.83 719.92,-181.29"/>
</g>
<!-- zs44kdd3k01schy32fa916pa17gr7y68&#45;openssl&#45;3.3.2&#45;&gt;lsvh9q7b0qcjwxd7m2ihby4r3hn0dw9i&#45;libssh2&#45;1.11.1 -->
<g id="edge33" class="edge">
<title>zs44kdd3k01schy32fa916pa17gr7y68-openssl-3.3.2-&gt;lsvh9q7b0qcjwxd7m2ihby4r3hn0dw9i-libssh2-1.11.1</title>
<path fill="none" stroke="green" d="M857.37,-215.7C862.55,-207.81 868.8,-198.3 874.56,-189.55"/>
<polygon fill="green" stroke="green" points="877.36,-191.65 879.93,-181.37 871.51,-187.8 877.36,-191.65"/>
</g>
<!-- zs44kdd3k01schy32fa916pa17gr7y68&#45;openssl&#45;3.3.2&#45;&gt;s0h8qpiflqcrgxd4fl3p1wyr371x274r&#45;curl&#45;8.11.1 -->
<g id="edge48" class="edge">
<title>zs44kdd3k01schy32fa916pa17gr7y68-openssl-3.3.2-&gt;s0h8qpiflqcrgxd4fl3p1wyr371x274r-curl-8.11.1</title>
<path fill="none" stroke="burlywood" d="M826.53,-215.92C817.18,-206.4 806.95,-193.72 802,-180 794.95,-160.47 797.72,-137.06 801.97,-119.15"/>
<polygon fill="burlywood" stroke="burlywood" points="805.29,-120.3 804.5,-109.74 798.53,-118.49 805.29,-120.3"/>
</g>
<!-- 4gk773fqcsv4fh2rfkhs9bgfih86fdq8&#45;gcc&#45;13.3.0&#45;lib&#45;&gt;afdaxacrxy5jgh5pmm3a2xn3hny6wdq7&#45;zstd&#45;1.5.6 -->
<g id="edge12" class="edge">
<title>4gk773fqcsv4fh2rfkhs9bgfih86fdq8-gcc-13.3.0-lib-&gt;afdaxacrxy5jgh5pmm3a2xn3hny6wdq7-zstd-1.5.6</title>
<path fill="none" stroke="burlywood" d="M401.11,-215.7C406.69,-207.73 413.43,-198.1 419.62,-189.26"/>
<polygon fill="burlywood" stroke="burlywood" points="422.29,-191.54 425.16,-181.34 416.56,-187.53 422.29,-191.54"/>
</g>
<!-- bmjqxvy53752b3xfvbab6s87xq06hxbs&#45;gcc&#45;13.3.0&#45;libgcc -->
<g id="node14" class="node">
<title>bmjqxvy53752b3xfvbab6s87xq06hxbs-gcc-13.3.0-libgcc</title>
<polygon fill="#ff0000" stroke="black" points="473.98,-324 360.02,-324 360.02,-288 473.98,-288 473.98,-324"/>
<text text-anchor="middle" x="417" y="-301.8" font-family="Times,serif" font-size="14.00">gcc-13.3.0-libgcc</text>
</g>
<!-- bmjqxvy53752b3xfvbab6s87xq06hxbs&#45;gcc&#45;13.3.0&#45;libgcc&#45;&gt;4gk773fqcsv4fh2rfkhs9bgfih86fdq8&#45;gcc&#45;13.3.0&#45;lib -->
<g id="edge14" class="edge">
<title>bmjqxvy53752b3xfvbab6s87xq06hxbs-gcc-13.3.0-libgcc-&gt;4gk773fqcsv4fh2rfkhs9bgfih86fdq8-gcc-13.3.0-lib</title>
<path fill="none" stroke="red" d="M410.08,-287.7C407.06,-280.15 403.45,-271.12 400.07,-262.68"/>
<polygon fill="red" stroke="red" points="403.37,-261.49 396.4,-253.51 396.87,-264.09 403.37,-261.49"/>
</g>
<!-- 5mq02cggv5riwg4n7w4amddjgv6b5fnj&#45;keyutils&#45;1.6.3&#45;lib&#45;&gt;b4hmjzgk6w13525nwgb04xpmd71g4nbx&#45;krb5&#45;1.21.3&#45;lib -->
<g id="edge16" class="edge">
<title>5mq02cggv5riwg4n7w4amddjgv6b5fnj-keyutils-1.6.3-lib-&gt;b4hmjzgk6w13525nwgb04xpmd71g4nbx-krb5-1.21.3-lib</title>
<path fill="none" stroke="blue" d="M604.79,-215.7C613.83,-207.37 624.84,-197.22 634.78,-188.07"/>
<polygon fill="blue" stroke="blue" points="637.07,-190.72 642.05,-181.37 632.33,-185.57 637.07,-190.72"/>
</g>
<!-- gwgqdl0242ymlikq9s9s62gkp5cvyal3&#45;bash&#45;5.2p37&#45;&gt;b4hmjzgk6w13525nwgb04xpmd71g4nbx&#45;krb5&#45;1.21.3&#45;lib -->
<g id="edge17" class="edge">
<title>gwgqdl0242ymlikq9s9s62gkp5cvyal3-bash-5.2p37-&gt;b4hmjzgk6w13525nwgb04xpmd71g4nbx-krb5-1.21.3-lib</title>
<path fill="none" stroke="magenta" d="M692.87,-215.7C688.3,-207.9 682.8,-198.51 677.71,-189.83"/>
<polygon fill="magenta" stroke="magenta" points="680.86,-188.27 672.78,-181.41 674.82,-191.81 680.86,-188.27"/>
</g>
<!-- 8az76ng86zh4m4383qwf57kv9w0140vc&#45;oniguruma&#45;6.9.9&#45;lib&#45;&gt;jhw7aklgrc23125ysg1mc72y8zq0lndw&#45;jq&#45;1.7.1&#45;bin -->
<g id="edge22" class="edge">
<title>8az76ng86zh4m4383qwf57kv9w0140vc-oniguruma-6.9.9-lib-&gt;jhw7aklgrc23125ysg1mc72y8zq0lndw-jq-1.7.1-bin</title>
<path fill="none" stroke="blue" d="M1460.8,-215.61C1456.99,-197.17 1449.63,-167.52 1438,-144 1433.41,-134.73 1427.19,-125.38 1421.06,-117.18"/>
<polygon fill="blue" stroke="blue" points="1423.86,-115.07 1414.95,-109.33 1418.34,-119.37 1423.86,-115.07"/>
</g>
<!-- 8az76ng86zh4m4383qwf57kv9w0140vc&#45;oniguruma&#45;6.9.9&#45;lib&#45;&gt;wb75941w6ygkc0ihl55gfsapcdrxm2hq&#45;jq&#45;1.7.1 -->
<g id="edge49" class="edge">
<title>8az76ng86zh4m4383qwf57kv9w0140vc-oniguruma-6.9.9-lib-&gt;wb75941w6ygkc0ihl55gfsapcdrxm2hq-jq-1.7.1</title>
<path fill="none" stroke="black" d="M1447.93,-215.7C1440.3,-207.47 1431.02,-197.48 1422.6,-188.42"/>
<polygon fill="black" stroke="black" points="1425.28,-186.16 1415.91,-181.21 1420.15,-190.92 1425.28,-186.16"/>
</g>
<!-- wb75941w6ygkc0ihl55gfsapcdrxm2hq&#45;jq&#45;1.7.1&#45;&gt;jhw7aklgrc23125ysg1mc72y8zq0lndw&#45;jq&#45;1.7.1&#45;bin -->
<g id="edge24" class="edge">
<title>wb75941w6ygkc0ihl55gfsapcdrxm2hq-jq-1.7.1-&gt;jhw7aklgrc23125ysg1mc72y8zq0lndw-jq-1.7.1-bin</title>
<path fill="none" stroke="burlywood" d="M1399,-143.7C1399,-136.41 1399,-127.73 1399,-119.54"/>
<polygon fill="burlywood" stroke="burlywood" points="1402.5,-119.62 1399,-109.62 1395.5,-119.62 1402.5,-119.62"/>
</g>
<!-- 6pqgj71r0850b0cd95yxx0d52zax016i&#45;libunistring&#45;1.2 -->
<g id="node20" class="node">
<title>6pqgj71r0850b0cd95yxx0d52zax016i-libunistring-1.2</title>
<polygon fill="#ff0000" stroke="black" points="236.36,-468 133.64,-468 133.64,-432 236.36,-432 236.36,-468"/>
<text text-anchor="middle" x="185" y="-445.8" font-family="Times,serif" font-size="14.00">libunistring-1.2</text>
</g>
<!-- 6pqgj71r0850b0cd95yxx0d52zax016i&#45;libunistring&#45;1.2&#45;&gt;lai3ymn295qmvqdbgiqs06xl9l9j21w7&#45;libpsl&#45;0.21.5 -->
<g id="edge27" class="edge">
<title>6pqgj71r0850b0cd95yxx0d52zax016i-libunistring-1.2-&gt;lai3ymn295qmvqdbgiqs06xl9l9j21w7-libpsl-0.21.5</title>
<path fill="none" stroke="green" d="M153.09,-431.63C102.98,-402.15 15.6,-340.39 57,-288 77.53,-262.02 165.59,-247.42 224.72,-240.39"/>
<polygon fill="green" stroke="green" points="225.09,-243.87 234.63,-239.25 224.29,-236.91 225.09,-243.87"/>
</g>
<!-- 6pqgj71r0850b0cd95yxx0d52zax016i&#45;libunistring&#45;1.2&#45;&gt;qwjjm4j652ck9izaid7bz63s4hd5bnha&#45;libidn2&#45;2.3.7 -->
<g id="edge37" class="edge">
<title>6pqgj71r0850b0cd95yxx0d52zax016i-libunistring-1.2-&gt;qwjjm4j652ck9izaid7bz63s4hd5bnha-libidn2-2.3.7</title>
<path fill="none" stroke="black" d="M221.72,-431.52C240.91,-422.38 264.6,-411.09 285.11,-401.33"/>
<polygon fill="black" stroke="black" points="286.61,-404.49 294.13,-397.03 283.6,-398.17 286.61,-404.49"/>
</g>
<!-- 8lwbq18vjygxgr7d8nrhsjsk1zq257gs&#45;publicsuffix&#45;list&#45;0&#45;unstable&#45;2024&#45;10&#45;25 -->
<g id="node21" class="node">
<title>8lwbq18vjygxgr7d8nrhsjsk1zq257gs-publicsuffix-list-0-unstable-2024-10-25</title>
<polygon fill="#ff0000" stroke="black" points="304.2,-324 65.8,-324 65.8,-288 304.2,-288 304.2,-324"/>
<text text-anchor="middle" x="185" y="-301.8" font-family="Times,serif" font-size="14.00">publicsuffix-list-0-unstable-2024-10-25</text>
</g>
<!-- 8lwbq18vjygxgr7d8nrhsjsk1zq257gs&#45;publicsuffix&#45;list&#45;0&#45;unstable&#45;2024&#45;10&#45;25&#45;&gt;lai3ymn295qmvqdbgiqs06xl9l9j21w7&#45;libpsl&#45;0.21.5 -->
<g id="edge28" class="edge">
<title>8lwbq18vjygxgr7d8nrhsjsk1zq257gs-publicsuffix-list-0-unstable-2024-10-25-&gt;lai3ymn295qmvqdbgiqs06xl9l9j21w7-libpsl-0.21.5</title>
<path fill="none" stroke="blue" d="M208.48,-287.7C220.24,-279.03 234.67,-268.4 247.48,-258.96"/>
<polygon fill="blue" stroke="blue" points="249.26,-261.99 255.24,-253.24 245.11,-256.36 249.26,-261.99"/>
</g>
<!-- 2d5spnl8j5r4n1s4bj1zmra7mwx0f1n8&#45;xgcc&#45;13.3.0&#45;libgcc -->
<g id="node22" class="node">
<title>2d5spnl8j5r4n1s4bj1zmra7mwx0f1n8-xgcc-13.3.0-libgcc</title>
<polygon fill="#ff0000" stroke="black" points="979.48,-396 858.52,-396 858.52,-360 979.48,-360 979.48,-396"/>
<text text-anchor="middle" x="919" y="-373.8" font-family="Times,serif" font-size="14.00">xgcc-13.3.0-libgcc</text>
</g>
<!-- 2d5spnl8j5r4n1s4bj1zmra7mwx0f1n8&#45;xgcc&#45;13.3.0&#45;libgcc&#45;&gt;nqb2ns2d1lahnd5ncwmn6k84qfd7vx2k&#45;glibc&#45;2.40&#45;36 -->
<g id="edge35" class="edge">
<title>2d5spnl8j5r4n1s4bj1zmra7mwx0f1n8-xgcc-13.3.0-libgcc-&gt;nqb2ns2d1lahnd5ncwmn6k84qfd7vx2k-glibc-2.40-36</title>
<path fill="none" stroke="magenta" d="M919,-359.7C919,-352.41 919,-343.73 919,-335.54"/>
<polygon fill="magenta" stroke="magenta" points="922.5,-335.62 919,-325.62 915.5,-335.62 922.5,-335.62"/>
</g>
</g>
</svg>