<svg xmlns="http://www.w3.org/2000/svg" xmlns:xlink="http://www.w3.org/1999/xlink" width="1398pt" height="548pt" viewBox="0.00 0.00 1397.96 548.00">
<g id="graph0" class="graph" transform="scale(1 1) rotate(0) translate(4 544)">
<title>G</title>
<polygon fill="white" stroke="none" points="-4,4 -4,-544 1393.96,-544 1393.96,4 -4,4"/>
<!-- y2g0ijqqiyi9vxr9xgmvvgblxqflqzav&#45;what&#45;is&#45;my&#45;ip -->
<g id="node1" class="node">
<title>y2g0ijqqiyi9vxr9xgmvvgblxqflqzav-what-is-my-ip</title>
<polygon fill="#ff0000" stroke="black" points="1237.66,-36 1142.34,-36 1142.34,0 1237.66,0 1237.66,-36"/>
<text text-anchor="middle" x="1190" y="-13.8" font-family="Times,serif" font-size="14.00">what-is-my-ip</text>
</g>
<!-- 7p8814g62bybwa8blmaqr9piv3vjwan5&#45;curl&#45;8.11.1&#45;bin -->
<g id="node2" class="node">
<title>7p8814g62bybwa8blmaqr9piv3vjwan5-curl-8.11.1-bin</title>
<polygon fill="#ff0000" stroke="black" points="774.99,-108 675.01,-108 675.01,-72 774.99,-72 774.99,-108"/>
<text text-anchor="middle" x="725" y="-85.8" font-family="Times,serif" font-size="14.00">curl-8.11.1-bin</text>
</g>
<!-- 7p8814g62bybwa8blmaqr9piv3vjwan5&#45;curl&#45;8.11.1&#45;bin&#45;&gt;y2g0ijqqiyi9vxr9xgmvvgblxqflqzav&#45;what&#45;is&#45;my&#45;ip -->
<g id="edge1" class="edge">
<title>7p8814g62bybwa8blmaqr9piv3vjwan5-curl-8.11.1-bin-&gt;y2g0ijqqiyi9vxr9xgmvvgblxqflqzav-what-is-my-ip</title>
<path fill="none" stroke="black" d="M775.2,-81.44C861.69,-68.42 1038.34,-41.83 1130.72,-27.92"/>
<polygon fill="black" stroke="black" points="1131.23,-31.39 1140.6,-26.44 1130.19,-24.46 1131.23,-31.39"/>
</g>
<!-- gwgqdl0242ymlikq9s9s62gkp5cvyal3&#45;bash&#45;5.2p37 -->
<g id="node3" class="node">
<title>gwgqdl0242ymlikq9s9s62gkp5cvyal3-bash-5.2p37</title>
<polygon fill="#ff0000" stroke="black" points="1149.41,-324 1064.59,-324 1064.59,-288 1149.41,-288 1149.41,-324"/>
<text text-anchor="middle" x="1107" y="-301.8" font-family="Times,serif" font-size="14.00">bash-5.2p37</text>
</g>
<!-- gwgqdl0242ymlikq9s9s62gkp5cvyal3&#45;bash&#45;5.2p37&#45;&gt;y2g0ijqqiyi9vxr9xgmvvgblxqflqzav&#45;what&#45;is&#45;my&#45;ip -->
<g id="edge2" class="edge">
<title>gwgqdl0242ymlikq9s9s62gkp5cvyal3-bash-5.2p37-&gt;y2g0ijqqiyi9vxr9xgmvvgblxqflqzav-what-is-my-ip</title>
<path fill="none" stroke="red" d="M1116.64,-287.75C1122.03,-277.58 1128.53,-264.33 1133,-252 1159.02,-180.28 1176.99,-91.88 1185.11,-47.41"/>
<polygon fill="red" stroke="red" points="1188.5,-48.28 1186.82,-37.82 1181.61,-47.05 1188.5,-48.28"/>
</g>
<!-- b4hmjzgk6w13525nwgb04xpmd71g4nbx&#45;krb5&#45;1.21.3&#45;lib -->
<g id="node6" class="node">
<title>b4hmjzgk6w13525nwgb04xpmd71g4nbx-krb5-1.21.3-lib</title>
<polygon fill="#ff0000" stroke="black" points="1124.38,-252 1023.62,-252 1023.62,-216 1124.38,-216 1124.38,-252"/>
<text text-anchor="middle" x="1074" y="-229.8" font-family="Times,serif" font-size="14.00">krb5-1.21.3-lib</text>
</g>
<!-- gwgqdl0242ymlikq9s9s62gkp5cvyal3&#45;bash&#45;5.2p37&#45;&gt;b4hmjzgk6w13525nwgb04xpmd71g4nbx&#45;krb5&#45;1.21.3&#45;lib -->
<g id="edge20" class="edge">
<title>gwgqdl0242ymlikq9s9s62gkp5cvyal3-bash-5.2p37-&gt;b4hmjzgk6w13525nwgb04xpmd71g4nbx-krb5-1.21.3-lib</title>
<path fill="none" stroke="red" d="M1098.84,-287.7C1095.25,-280.07 1090.93,-270.92 1086.92,-262.4"/>
<polygon fill="red" stroke="red" points="1090.14,-261.03 1082.71,-253.47 1083.81,-264.01 1090.14,-261.03"/>
</g>
<!-- jhw7aklgrc23125ysg1mc72y8zq0lndw&#45;jq&#45;1.7.1&#45;bin -->
<g id="node4" class="node">
<title>jhw7aklgrc23125ysg1mc72y8zq0lndw-jq-1.7.1-bin</title>
<polygon fill="#ff0000" stroke="black" points="1303.05,-180 1220.95,-180 1220.95,-144 1303.05,-144 1303.05,-180"/>
<text text-anchor="middle" x="1262" y="-157.8" font-family="Times,serif" font-size="14.00">jq-1.7.1-bin</text>
</g>
<!-- jhw7aklgrc23125ysg1mc72y8zq0lndw&#45;jq&#45;1.7.1&#45;bin&#45;&gt;y2g0ijqqiyi9vxr9xgmvvgblxqflqzav&#45;what&#45;is&#45;my&#45;ip -->
<g id="edge3" class="edge">
<title>jhw7aklgrc23125ysg1mc72y8zq0lndw-jq-1.7.1-bin-&gt;y2g0ijqqiyi9vxr9xgmvvgblxqflqzav-what-is-my-ip</title>
<path fill="none" stroke="green" d="M1253.17,-143.59C1240.85,-119.29 1218.38,-74.97 1203.83,-46.27"/>
<polygon fill="green" stroke="green" points="1207,-44.8 1199.36,-37.46 1200.76,-47.96 1207,-44.8"/>
</g>
<!-- afdaxacrxy5jgh5pmm3a2xn3hny6wdq7&#45;zstd&#45;1.5.6 -->
<g id="node5" class="node">
<title>afdaxacrxy5jgh5pmm3a2xn3hny6wdq7-zstd-1.5.6</title>
<polygon fill="#ff0000" stroke="black" points="677.61,-252 606.39,-252 606.39,-216 677.61,-216 677.61,-252"/>
<text text-anchor="middle" x="642" y="-229.8" font-family="Times,serif" font-size="14.00">zstd-1.5.6</text>
</g>
<!-- afdaxacrxy5jgh5pmm3a2xn3hny6wdq7&#45;zstd&#45;1.5.6&#45;&gt;7p8814g62bybwa8blmaqr9piv3vjwan5&#45;curl&#45;8.11.1&#45;bin -->
<g id="edge4" class="edge">
<title>afdaxacrxy5jgh5pmm3a2xn3hny6wdq7-zstd-1.5.6-&gt;7p8814g62bybwa8blmaqr9piv3vjwan5-curl-8.11.1-bin</title>
<path fill="none" stroke="blue" d="M658.84,-215.89C667.98,-205.98 679,-192.94 687,-180 698.87,-160.8 708.75,-137.24 715.45,-119.19"/>
<polygon fill="blue" stroke="blue" points="718.7,-120.5 718.79,-109.91 712.11,-118.13 718.7,-120.5"/>
</g>
<!-- s0h8qpiflqcrgxd4fl3p1wyr371x274r&#45;curl&#45;8.11.1 -->
<g id="node14" class="node">
<title>s0h8qpiflqcrgxd4fl3p1wyr371x274r-curl-8.11.1</title>
<polygon fill="#ff0000" stroke="black" points="677.71,-180 600.29,-180 600.29,-144 677.71,-144 677.71,-180"/>
<text text-anchor="middle" x="639" y="-157.8" font-family="Times,serif" font-size="14.00">curl-8.11.1</text>
</g>
<!-- afdaxacrxy5jgh5pmm3a2xn3hny6wdq7&#45;zstd&#45;1.5.6&#45;&gt;s0h8qpiflqcrgxd4fl3p1wyr371x274r&#45;curl&#45;8.11.1 -->
<g id="edge42" class="edge">
<title>afdaxacrxy5jgh5pmm3a2xn3hny6wdq7-zstd-1.5.6-&gt;s0h8qpiflqcrgxd4fl3p1wyr371x274r-curl-8.11.1</title>
<path fill="none" stroke="burlywood" d="M641.26,-215.7C640.95,-208.41 640.57,-199.73 640.22,-191.54"/>
<polygon fill="burlywood" stroke="burlywood" points="643.72,-191.46 639.8,-181.62 636.73,-191.76 643.72,-191.46"/>
</g>
<!-- b4hmjzgk6w13525nwgb04xpmd71g4nbx&#45;krb5&#45;1.21.3&#45;lib&#45;&gt;7p8814g62bybwa8blmaqr9piv3vjwan5&#45;curl&#45;8.11.1&#45;bin -->
<g id="edge5" class="edge">
<title>b4hmjzgk6w13525nwgb04xpmd71g4nbx-krb5-1.21.3-lib-&gt;7p8814g62bybwa8blmaqr9piv3vjwan5-curl-8.11.1-bin</title>
<path fill="none" stroke="magenta" d="M1031.21,-215.59C967.41,-189.63 847.45,-140.82 778.13,-112.62"/>
<polygon fill="magenta" stroke="magenta" points="779.85,-109.54 769.27,-109.01 777.22,-116.02 779.85,-109.54"/>
</g>
<!-- b4hmjzgk6w13525nwgb04xpmd71g4nbx&#45;krb5&#45;1.21.3&#45;lib&#45;&gt;s0h8qpiflqcrgxd4fl3p1wyr371x274r&#45;curl&#45;8.11.1 -->
<g id="edge43" class="edge">
<title>b4hmjzgk6w13525nwgb04xpmd71g4nbx-krb5-1.21.3-lib-&gt;s0h8qpiflqcrgxd4fl3p1wyr371x274r-curl-8.11.1</title>
<path fill="none" stroke="black" d="M1023.27,-217.89C1020.48,-217.21 1017.71,-216.58 1015,-216 899.49,-191.35 761.49,-175.24 689.06,-167.79"/>
<polygon fill="black" stroke="black" points="689.82,-164.35 679.52,-166.83 689.12,-171.32 689.82,-164.35"/>
</g>
<!-- l5g2v1jgfyf3j0jp9iv5b79fi8yrwzpp&#45;zlib&#45;1.3.1 -->
<g id="node7" class="node">
<title>l5g2v1jgfyf3j0jp9iv5b79fi8yrwzpp-zlib-1.3.1</title>
<polygon fill="#ff0000" stroke="black" points="467.83,-324 398.17,-324 398.17,-288 467.83,-288 467.83,-324"/>
<text text-anchor="middle" x="433" y="-301.8" font-family="Times,serif" font-size="14.00">zlib-1.3.1</text>
</g>
<!-- l5g2v1jgfyf3j0jp9iv5b79fi8yrwzpp&#45;zlib&#45;1.3.1&#45;&gt;7p8814g62bybwa8blmaqr9piv3vjwan5&#45;curl&#45;8.11.1&#45;bin -->
<g id="edge6" class="edge">
<title>l5g2v1jgfyf3j0jp9iv5b79fi8yrwzpp-zlib-1.3.1-&gt;7p8814g62bybwa8blmaqr9piv3vjwan5-curl-8.11.1-bin</title>
<path fill="none" stroke="burlywood" d="M426.21,-287.7C419.98,-268.81 413.44,-238.28 426,-216 473.21,-132.26 590.59,-104.62 663.45,-95.49"/>
<polygon fill="burlywood" stroke="burlywood" points="663.71,-98.99 673.24,-94.36 662.9,-92.03 663.71,-98.99"/>
</g>
<!-- lsvh9q7b0qcjwxd7m2ihby4r3hn0dw9i&#45;libssh2&#45;1.11.1 -->
<g id="node9" class="node">
<title>lsvh9q7b0qcjwxd7m2ihby4r3hn0dw9i-libssh2-1.11.1</title>
<polygon fill="#ff0000" stroke="black" points="549.67,-252 454.33,-252 454.33,-216 549.67,-216 549.67,-252"/>
<text text-anchor="middle" x="502" y="-229.8" font-family="Times,serif" font-size="14.00">libssh2-1.11.1</text>
</g>
<!-- l5g2v1jgfyf3j0jp9iv5b79fi8yrwzpp&#45;zlib&#45;1.3.1&#45;&gt;lsvh9q7b0qcjwxd7m2ihby4r3hn0dw9i&#45;libssh2&#45;1.11.1 -->
<g id="edge34" class="edge">
<title>l5g2v1jgfyf3j0jp9iv5b79fi8yrwzpp-zlib-1.3.1-&gt;lsvh9q7b0qcjwxd7m2ihby4r3hn0dw9i-libssh2-1.11.1</title>
<path fill="none" stroke="blue" d="M450.06,-287.7C458.24,-279.39 468.21,-269.28 477.22,-260.14"/>
<polygon fill="blue" stroke="blue" points="479.55,-262.76 484.08,-253.18 474.56,-257.85 479.55,-262.76"/>
</g>
<!-- l5g2v1jgfyf3j0jp9iv5b79fi8yrwzpp&#45;zlib&#45;1.3.1&#45;&gt;s0h8qpiflqcrgxd4fl3p1wyr371x274r&#45;curl&#45;8.11.1 -->
<g id="edge44" class="edge">
<title>l5g2v1jgfyf3j0jp9iv5b79fi8yrwzpp-zlib-1.3.1-&gt;s0h8qpiflqcrgxd4fl3p1wyr371x274r-curl-8.11.1</title>
<path fill="none" stroke="red" d="M430.16,-287.67C427.97,-267.88 427.75,-235.71 445,-216 463.82,-194.51 537.83,-178.84 588.8,-170.33"/>
<polygon fill="red" stroke="red" points="589.13,-173.82 598.44,-168.76 588.01,-166.91 589.13,-173.82"/>
</g>
<!-- lai3ymn295qmvqdbgiqs06xl9l9j21w7&#45;libpsl&#45;0.21.5 -->
<g id="node8" class="node">
<title>lai3ymn295qmvqdbgiqs06xl9l9j21w7-libpsl-0.21.5</title>
<polygon fill="#ff0000" stroke="black" points="332.39,-324 245.61,-324 245.61,-288 332.39,-288 332.39,-324"/>
<text text-anchor="middle" x="289" y="-301.8" font-family="Times,serif" font-size="14.00">libpsl-0.21.5</text>
</g>
<!-- lai3ymn295qmvqdbgiqs06xl9l9j21w7&#45;libpsl&#45;0.21.5&#45;&gt;7p8814g62bybwa8blmaqr9piv3vjwan5&#45;curl&#45;8.11.1&#45;bin -->
<g id="edge7" class="edge">
<title>lai3ymn295qmvqdbgiqs06xl9l9j21w7-libpsl-0.21.5-&gt;7p8814g62bybwa8blmaqr9piv3vjwan5-curl-8.11.1-bin</title>
<path fill="none" stroke="black" d="M301.04,-287.58C325.33,-253.9 383.75,-180.01 452,-144 518.62,-108.85 605.42,-96.86 663.07,-92.85"/>
<polygon fill="black" stroke="black" points="663.28,-96.35 673.04,-92.23 662.85,-89.36 663.28,-96.35"/>
</g>
<!-- lai3ymn295qmvqdbgiqs06xl9l9j21w7&#45;libpsl&#45;0.21.5&#45;&gt;s0h8qpiflqcrgxd4fl3p1wyr371x274r&#45;curl&#45;8.11.1 -->
<g id="edge45" class="edge">
<title>lai3ymn295qmvqdbgiqs06xl9l9j21w7-libpsl-0.21.5-&gt;s0h8qpiflqcrgxd4fl3p1wyr371x274r-curl-8.11.1</title>
<path fill="none" stroke="green" d="M300.56,-287.54C315.13,-267.01 342.17,-233.51 374,-216 442.12,-178.53 533.09,-167.36 588.78,-164.14"/>
<polygon fill="green" stroke="green" points="588.79,-167.65 598.6,-163.65 588.44,-160.66 588.79,-167.65"/>
</g>
<!-- lsvh9q7b0qcjwxd7m2ihby4r3hn0dw9i&#45;libssh2&#45;1.11.1&#45;&gt;7p8814g62bybwa8blmaqr9piv3vjwan5&#45;curl&#45;8.11.1&#45;bin -->
<g id="edge8" class="edge">
<title>lsvh9q7b0qcjwxd7m2ihby4r3hn0dw9i-libssh2-1.11.1-&gt;7p8814g62bybwa8blmaqr9piv3vjwan5-curl-8.11.1-bin</title>
<path fill="none" stroke="red" d="M515.44,-215.82C531.57,-196.18 560.31,-164.15 591,-144 613.22,-129.41 640.07,-117.81 663.88,-109.22"/>
<polygon fill="red" stroke="red" points="664.87,-112.58 673.15,-105.98 662.56,-105.97 664.87,-112.58"/>
</g>
<!-- lsvh9q7b0qcjwxd7m2ihby4r3hn0dw9i&#45;libssh2&#45;1.11.1&#45;&gt;s0h8qpiflqcrgxd4fl3p1wyr371x274r&#45;curl&#45;8.11.1 -->
<g id="edge46" class="edge">
<title>lsvh9q7b0qcjwxd7m2ihby4r3hn0dw9i-libssh2-1.11.1-&gt;s0h8qpiflqcrgxd4fl3p1wyr371x274r-curl-8.11.1</title>
<path fill="none" stroke="blue" d="M536.22,-215.52C554.01,-206.43 575.95,-195.22 594.99,-185.49"/>
<polygon fill="blue" stroke="blue" points="596.56,-188.62 603.87,-180.95 593.37,-182.38 596.56,-188.62"/>
</g>
<!-- m70hxn0ph0gc3gnvkpjb9631655nnw6z&#45;brotli&#45;1.1.0&#45;lib -->
<g id="node10" class="node">
<title>m70hxn0ph0gc3gnvkpjb9631655nnw6z-brotli-1.1.0-lib</title>
<polygon fill="#ff0000" stroke="black" points="870.22,-252 771.78,-252 771.78,-216 870.22,-216 870.22,-252"/>
<text text-anchor="middle" x="821" y="-229.8" font-family="Times,serif" font-size="14.00">brotli-1.1.0-lib</text>
</g>
<!-- m70hxn0ph0gc3gnvkpjb9631655nnw6z&#45;brotli&#45;1.1.0&#45;lib&#45;&gt;7p8814g62bybwa8blmaqr9piv3vjwan5&#45;curl&#45;8.11.1&#45;bin -->
<g id="edge9" class="edge">
<title>m70hxn0ph0gc3gnvkpjb9631655nnw6z-brotli-1.1.0-lib-&gt;7p8814g62bybwa8blmaqr9piv3vjwan5-curl-8.11.1-bin</title>
<path fill="none" stroke="green" d="M809.23,-215.59C792.66,-191.08 762.31,-146.19 742.93,-117.52"/>
<polygon fill="green" stroke="green" points="745.92,-115.69 737.42,-109.36 740.12,-119.61 745.92,-115.69"/>
</g>
<!-- m70hxn0ph0gc3gnvkpjb9631655nnw6z&#45;brotli&#45;1.1.0&#45;lib&#45;&gt;s0h8qpiflqcrgxd4fl3p1wyr371x274r&#45;curl&#45;8.11.1 -->
<g id="edge47" class="edge">
<title>m70hxn0ph0gc3gnvkpjb9631655nnw6z-brotli-1.1.0-lib-&gt;s0h8qpiflqcrgxd4fl3p1wyr371x274r-curl-8.11.1</title>
<path fill="none" stroke="magenta" d="M775.54,-215.52C749.05,-205.33 715.62,-192.47 688.47,-182.03"/>
<polygon fill="magenta" stroke="magenta" points="690.03,-178.88 679.44,-178.55 687.51,-185.41 690.03,-178.88"/>
</g>
<!-- nqb2ns2d1lahnd5ncwmn6k84qfd7vx2k&#45;glibc&#45;2.40&#45;36 -->
<g id="node11" class="node">
<title>nqb2ns2d1lahnd5ncwmn6k84qfd7vx2k-glibc-2.40-36</title>
<polygon fill="#ff0000" stroke="black" points="875.91,-396 784.09,-396 784.09,-360 875.91,-360 875.91,-396"/>
<text text-anchor="middle" x="830" y="-373.8" font-family="Times,serif" font-size="14.00">glibc-2.40-36</text>
</g>
<!-- nqb2ns2d1lahnd5ncwmn6k84qfd7vx2k&#45;glibc&#45;2.40&#45;36&#45;&gt;7p8814g62bybwa8blmaqr9piv3vjwan5&#45;curl&#45;8.11.1&#45;bin -->
<g id="edge10" class="edge">
<title>nqb2ns2d1lahnd5ncwmn6k84qfd7vx2k-glibc-2.40-36-&gt;7p8814g62bybwa8blmaqr9piv3vjwan5-curl-8.11.1-bin</title>
<path fill="none" stroke="blue" d="M876.11,-376.59C957.71,-374.78 1122.34,-365.89 1158,-324 1168.37,-311.82 1160.66,-303.78 1158,-288 1152.37,-254.6 1157.15,-239.75 1133,-216 1059.95,-144.15 1012.02,-173.84 914,-144 871.42,-131.04 823.09,-117.51 785.97,-107.36"/>
<polygon fill="blue" stroke="blue" points="787.34,-104.11 776.78,-104.86 785.5,-110.86 787.34,-104.11"/>
</g>
<!-- nqb2ns2d1lahnd5ncwmn6k84qfd7vx2k&#45;glibc&#45;2.40&#45;36&#45;&gt;gwgqdl0242ymlikq9s9s62gkp5cvyal3&#45;bash&#45;5.2p37 -->
<g id="edge24" class="edge">
<title>nqb2ns2d1lahnd5ncwmn6k84qfd7vx2k-glibc-2.40-36-&gt;gwgqdl0242ymlikq9s9s62gkp5cvyal3-bash-5.2p37</title>
<path fill="none" stroke="burlywood" d="M876.4,-367.27C919.78,-357.91 986.55,-342.82 1053.5,-324.3"/>
<polygon fill="burlywood" stroke="burlywood" points="1054.09,-327.77 1062.78,-321.7 1052.21,-321.02 1054.09,-327.77"/>
</g>
<!-- nqb2ns2d1lahnd5ncwmn6k84qfd7vx2k&#45;glibc&#45;2.40&#45;36&#45;&gt;jhw7aklgrc23125ysg1mc72y8zq0lndw&#45;jq&#45;1.7.1&#45;bin -->
<g id="edge26" class="edge">
<title>nqb2ns2d1lahnd5ncwmn6k84qfd7vx2k-glibc-2.40-36-&gt;jhw7aklgrc23125ysg1mc72y8zq0lndw-jq-1.7.1-bin</title>
<path fill="none" stroke="red" d="M876.33,-375.66C962.34,-372.32 1142.42,-360.98 1191,-324 1233.55,-291.61 1251.11,-228.23 1257.96,-191.4"/>
<polygon fill="red" stroke="red" points="1261.34,-192.38 1259.57,-181.93 1254.44,-191.2 1261.34,-192.38"/>
</g>
<!-- nqb2ns2d1lahnd5ncwmn6k84qfd7vx2k&#45;glibc&#45;2.40&#45;36&#45;&gt;afdaxacrxy5jgh5pmm3a2xn3hny6wdq7&#45;zstd&#45;1.5.6 -->
<g id="edge16" class="edge">
<title>nqb2ns2d1lahnd5ncwmn6k84qfd7vx2k-glibc-2.40-36-&gt;afdaxacrxy5jgh5pmm3a2xn3hny6wdq7-zstd-1.5.6</title>
<path fill="none" stroke="blue" d="M783.69,-364.77C757.98,-356.33 726.54,-343.14 703,-324 682.4,-307.25 665.91,-281.76 655.29,-262.35"/>
<polygon fill="blue" stroke="blue" points="658.46,-260.85 650.72,-253.62 652.26,-264.1 658.46,-260.85"/>
</g>
<!-- nqb2ns2d1lahnd5ncwmn6k84qfd7vx2k&#45;glibc&#45;2.40&#45;36&#45;&gt;b4hmjzgk6w13525nwgb04xpmd71g4nbx&#45;krb5&#45;1.21.3&#45;lib -->
<g id="edge21" class="edge">
<title>nqb2ns2d1lahnd5ncwmn6k84qfd7vx2k-glibc-2.40-36-&gt;b4hmjzgk6w13525nwgb04xpmd71g4nbx-krb5-1.21.3-lib</title>
<path fill="none" stroke="green" d="M851.51,-359.71C863.71,-349.64 879.06,-336.49 892,-324 907.61,-308.92 906.91,-299.99 925,-288 939.92,-278.11 978.3,-264.55 1012.36,-253.62"/>
<polygon fill="green" stroke="green" points="1013.32,-256.98 1021.79,-250.63 1011.2,-250.31 1013.32,-256.98"/>
</g>
<!-- nqb2ns2d1lahnd5ncwmn6k84qfd7vx2k&#45;glibc&#45;2.40&#45;36&#45;&gt;l5g2v1jgfyf3j0jp9iv5b79fi8yrwzpp&#45;zlib&#45;1.3.1 -->
<g id="edge29" class="edge">
<title>nqb2ns2d1lahnd5ncwmn6k84qfd7vx2k-glibc-2.40-36-&gt;l5g2v1jgfyf3j0jp9iv5b79fi8yrwzpp-zlib-1.3.1</title>
<path fill="none" stroke="magenta" d="M783.59,-372.66C716.38,-365.76 588.34,-350.31 482,-324 481.01,-323.75 480,-323.5 478.99,-323.23"/>
<polygon fill="magenta" stroke="magenta" points="480.13,-319.91 469.55,-320.46 478.16,-326.63 480.13,-319.91"/>
</g>
<!-- nqb2ns2d1lahnd5ncwmn6k84qfd7vx2k&#45;glibc&#45;2.40&#45;36&#45;&gt;lai3ymn295qmvqdbgiqs06xl9l9j21w7&#45;libpsl&#45;0.21.5 -->
<g id="edge32" class="edge">
<title>nqb2ns2d1lahnd5ncwmn6k84qfd7vx2k-glibc-2.40-36-&gt;lai3ymn295qmvqdbgiqs06xl9l9j21w7-libpsl-0.21.5</title>
<path fill="none" stroke="red" d="M783.87,-372.21C703.51,-363.69 532.66,-344.83 389,-324 374.28,-321.87 358.39,-319.29 343.7,-316.79"/>
<polygon fill="red" stroke="red" points="344.68,-313.41 334.23,-315.17 343.49,-320.31 344.68,-313.41"/>
</g>
<!-- nqb2ns2d1lahnd5ncwmn6k84qfd7vx2k&#45;glibc&#45;2.40&#45;36&#45;&gt;lsvh9q7b0qcjwxd7m2ihby4r3hn0dw9i&#45;libssh2&#45;1.11.1 -->
<g id="edge35" class="edge">
<title>nqb2ns2d1lahnd5ncwmn6k84qfd7vx2k-glibc-2.40-36-&gt;lsvh9q7b0qcjwxd7m2ihby4r3hn0dw9i-libssh2-1.11.1</title>
<path fill="none" stroke="magenta" d="M783.62,-372.22C700.62,-363.22 533.57,-342.98 515,-324 499.71,-308.38 497.26,-283.24 498.17,-263.66"/>
<polygon fill="magenta" stroke="magenta" points="501.65,-264.07 498.97,-253.82 494.67,-263.51 501.65,-264.07"/>
</g>
<!-- nqb2ns2d1lahnd5ncwmn6k84qfd7vx2k&#45;glibc&#45;2.40&#45;36&#45;&gt;m70hxn0ph0gc3gnvkpjb9631655nnw6z&#45;brotli&#45;1.1.0&#45;lib -->
<g id="edge37" class="edge">
<title>nqb2ns2d1lahnd5ncwmn6k84qfd7vx2k-glibc-2.40-36-&gt;m70hxn0ph0gc3gnvkpjb9631655nnw6z-brotli-1.1.0-lib</title>
<path fill="none" stroke="black" d="M828.9,-359.59C827.38,-335.61 824.62,-292.14 822.8,-263.42"/>
<polygon fill="black" stroke="black" points="826.31,-263.38 822.18,-253.62 819.32,-263.82 826.31,-263.38"/>
</g>
<!-- r3b4raa1z7pj73j4sri2fpwp0rsn6zhb&#45;nghttp2&#45;1.64.0&#45;lib -->
<g id="node13" class="node">
<title>r3b4raa1z7pj73j4sri2fpwp0rsn6zhb-nghttp2-1.64.0-lib</title>
<polygon fill="#ff0000" stroke="black" points="1005.94,-252 888.06,-252 888.06,-216 1005.94,-216 1005.94,-252"/>
<text text-anchor="middle" x="947" y="-229.8" font-family="Times,serif" font-size="14.00">nghttp2-1.64.0-lib</text>
</g>
<!-- nqb2ns2d1lahnd5ncwmn6k84qfd7vx2k&#45;glibc&#45;2.40&#45;36&#45;&gt;r3b4raa1z7pj73j4sri2fpwp0rsn6zhb&#45;nghttp2&#45;1.64.0&#45;lib -->
<g id="edge41" class="edge">
<title>nqb2ns2d1lahnd5ncwmn6k84qfd7vx2k-glibc-2.40-36-&gt;r3b4raa1z7pj73j4sri2fpwp0rsn6zhb-nghttp2-1.64.0-lib</title>
<path fill="none" stroke="magenta" d="M840.72,-359.54C852.39,-341.05 872.08,-311.35 892,-288 900.22,-278.37 909.96,-268.55 918.94,-260.02"/>
<polygon fill="magenta" stroke="magenta" points="921.2,-262.69 926.14,-253.32 916.43,-257.57 921.2,-262.69"/>
</g>
<!-- nqb2ns2d1lahnd5ncwmn6k84qfd7vx2k&#45;glibc&#45;2.40&#45;36&#45;&gt;s0h8qpiflqcrgxd4fl3p1wyr371x274r&#45;curl&#45;8.11.1 -->
<g id="edge48" class="edge">
<title>nqb2ns2d1lahnd5ncwmn6k84qfd7vx2k-glibc-2.40-36-&gt;s0h8qpiflqcrgxd4fl3p1wyr371x274r-curl-8.11.1</title>
<path fill="none" stroke="burlywood" d="M783.85,-368.07C749.99,-360.1 703.85,-346.19 668,-324 658.45,-318.09 601.26,-262.4 597,-252 590.93,-237.2 591.74,-231.11 597,-216 600.42,-206.17 606.51,-196.8 613.01,-188.74"/>
<polygon fill="burlywood" stroke="burlywood" points="615.48,-191.23 619.4,-181.39 610.2,-186.63 615.48,-191.23"/>
</g>
<!-- zs44kdd3k01schy32fa916pa17gr7y68&#45;openssl&#45;3.3.2 -->
<g id="node15" class="node">
<title>zs44kdd3k01schy32fa916pa17gr7y68-openssl-3.3.2</title>
<polygon fill="#ff0000" stroke="black" points="802.33,-324 711.67,-324 711.67,-288 802.33,-288 802.33,-324"/>
<text text-anchor="middle" x="757" y="-301.8" font-family="Times,serif" font-size="14.00">openssl-3.3.2</text>
</g>
<!-- nqb2ns2d1lahnd5ncwmn6k84qfd7vx2k&#45;glibc&#45;2.40&#45;36&#45;&gt;zs44kdd3k01schy32fa916pa17gr7y68&#45;openssl&#45;3.3.2 -->
<g id="edge54" class="edge">
<title>nqb2ns2d1lahnd5ncwmn6k84qfd7vx2k-glibc-2.40-36-&gt;zs44kdd3k01schy32fa916pa17gr7y68-openssl-3.3.2</title>
<path fill="none" stroke="burlywood" d="M811.96,-359.7C803.27,-351.37 792.69,-341.22 783.14,-332.07"/>
<polygon fill="burlywood" stroke="burlywood" points="785.82,-329.79 776.18,-325.39 780.98,-334.84 785.82,-329.79"/>
</g>
<!-- 4gk773fqcsv4fh2rfkhs9bgfih86fdq8&#45;gcc&#45;13.3.0&#45;lib -->
<g id="node16" class="node">
<title>4gk773fqcsv4fh2rfkhs9bgfih86fdq8-gcc-13.3.0-lib</title>
<polygon fill="#ff0000" stroke="black" points="618.27,-324 523.73,-324 523.73,-288 618.27,-288 618.27,-324"/>
<text text-anchor="middle" x="571" y="-301.8" font-family="Times,serif" font-size="14.00">gcc-13.3.0-lib</text>
</g>
<!-- nqb2ns2d1lahnd5ncwmn6k84qfd7vx2k&#45;glibc&#45;2.40&#45;36&#45;&gt;4gk773fqcsv4fh2rfkhs9bgfih86fdq8&#45;gcc&#45;13.3.0&#45;lib -->
<g id="edge18" class="edge">
<title>nqb2ns2d1lahnd5ncwmn6k84qfd7vx2k-glibc-2.40-36-&gt;4gk773fqcsv4fh2rfkhs9bgfih86fdq8-gcc-13.3.0-lib</title>
<path fill="none" stroke="burlywood" d="M783.95,-364.82C743.8,-354.16 684.01,-338.21 632,-324 631.18,-323.78 630.36,-323.55 629.54,-323.33"/>
<polygon fill="burlywood" stroke="burlywood" points="630.64,-320 620.07,-320.72 628.78,-326.75 630.64,-320"/>
</g>
<!-- 5mq02cggv5riwg4n7w4amddjgv6b5fnj&#45;keyutils&#45;1.6.3&#45;lib -->
<g id="node18" class="node">
<title>5mq02cggv5riwg4n7w4amddjgv6b5fnj-keyutils-1.6.3-lib</title>
<polygon fill="#ff0000" stroke="black" points="1046.22,-324 933.78,-324 933.78,-288 1046.22,-288 1046.22,-324"/>
<text text-anchor="middle" x="990" y="-301.8" font-family="Times,serif" font-size="14.00">keyutils-1.6.3-lib</text>
</g>
<!-- nqb2ns2d1lahnd5ncwmn6k84qfd7vx2k&#45;glibc&#45;2.40&#45;36&#45;&gt;5mq02cggv5riwg4n7w4amddjgv6b5fnj&#45;keyutils&#45;1.6.3&#45;lib -->
<g id="edge23" class="edge">
<title>nqb2ns2d1lahnd5ncwmn6k84qfd7vx2k-glibc-2.40-36-&gt;5mq02cggv5riwg4n7w4amddjgv6b5fnj-keyutils-1.6.3-lib</title>
<path fill="none" stroke="magenta" d="M869.96,-359.52C891.14,-350.25 917.35,-338.78 939.88,-328.93"/>
<polygon fill="magenta" stroke="magenta" points="941.13,-332.2 948.88,-324.99 938.32,-325.79 941.13,-332.2"/>
</g>
<!-- 8az76ng86zh4m4383qwf57kv9w0140vc&#45;oniguruma&#45;6.9.9&#45;lib -->
<g id="node19" class="node">
<title>8az76ng86zh4m4383qwf57kv9w0140vc-oniguruma-6.9.9-lib</title>
<polygon fill="#ff0000" stroke="black" points="1374.38,-324 1245.62,-324 1245.62,-288 1374.38,-288 1374.38,-324"/>
<text text-anchor="middle" x="1310" y="-301.8" font-family="Times,serif" font-size="14.00">oniguruma-6.9.9-lib</text>
</g>
<!-- nqb2ns2d1lahnd5ncwmn6k84qfd7vx2k&#45;glibc&#45;2.40&#45;36&#45;&gt;8az76ng86zh4m4383qwf57kv9w0140vc&#45;oniguruma&#45;6.9.9&#45;lib -->
<g id="edge28" class="edge">
<title>nqb2ns2d1lahnd5ncwmn6k84qfd7vx2k-glibc-2.40-36-&gt;8az76ng86zh4m4383qwf57kv9w0140vc-oniguruma-6.9.9-lib</title>
<path fill="none" stroke="blue" d="M876.31,-372.17C951.31,-364.05 1103.88,-346.37 1232,-324 1232.82,-323.86 1233.64,-323.71 1234.47,-323.56"/>
<polygon fill="blue" stroke="blue" points="1234.71,-327.08 1243.9,-321.8 1233.43,-320.2 1234.71,-327.08"/>
</g>
<!-- wb75941w6ygkc0ihl55gfsapcdrxm2hq&#45;jq&#45;1.7.1 -->
<g id="node20" class="node">
<title>wb75941w6ygkc0ihl55gfsapcdrxm2hq-jq-1.7.1</title>
<polygon fill="#ff0000" stroke="black" points="1353.78,-252 1294.22,-252 1294.22,-216 1353.78,-216 1353.78,-252"/>
<text text-anchor="middle" x="1324" y="-229.8" font-family="Times,serif" font-size="14.00">jq-1.7.1</text>
</g>
<!-- nqb2ns2d1lahnd5ncwmn6k84qfd7vx2k&#45;glibc&#45;2.40&#45;36&#45;&gt;wb75941w6ygkc0ihl55gfsapcdrxm2hq&#45;jq&#45;1.7.1 -->
<g id="edge53" class="edge">
<title>nqb2ns2d1lahnd5ncwmn6k84qfd7vx2k-glibc-2.40-36-&gt;wb75941w6ygkc0ihl55gfsapcdrxm2hq-jq-1.7.1</title>
<path fill="none" stroke="magenta" d="M876.1,-376.06C1002.8,-372.99 1349.15,-361.25 1383,-324 1401.16,-304.02 1379.55,-277.96 1357.55,-259.21"/>
<polygon fill="magenta" stroke="magenta" points="1360.01,-256.7 1350.04,-253.11 1355.6,-262.13 1360.01,-256.7"/>
</g>
<!-- qwjjm4j652ck9izaid7bz63s4hd5bnha&#45;libidn2&#45;2.3.7 -->
<g id="node12" class="node">
<title>qwjjm4j652ck9izaid7bz63s4hd5bnha-libidn2-2.3.7</title>
<polygon fill="#ff0000" stroke="black" points="448.17,-468 359.83,-468 359.83,-432 448.17,-432 448.17,-468"/>
<text text-anchor="middle" x="404" y="-445.8" font-family="Times,serif" font-size="14.00">libidn2-2.3.7</text>
</g>
<!-- qwjjm4j652ck9izaid7bz63s4hd5bnha&#45;libidn2&#45;2.3.7&#45;&gt;7p8814g62bybwa8blmaqr9piv3vjwan5&#45;curl&#45;8.11.1&#45;bin -->
<g id="edge11" class="edge">
<title>qwjjm4j652ck9izaid7bz63s4hd5bnha-libidn2-2.3.7-&gt;7p8814g62bybwa8blmaqr9piv3vjwan5-curl-8.11.1-bin</title>
<path fill="none" stroke="magenta" d="M359.63,-447.65C274.34,-444.23 91.57,-432.72 42,-396 6.86,-369.96 0,-350.74 0,-307 0,-307 0,-307 0,-233 0,-165.65 488.01,-113.23 663.27,-96.58"/>
<polygon fill="magenta" stroke="magenta" points="663.46,-100.07 673.09,-95.65 662.8,-93.11 663.46,-100.07"/>
</g>
<!-- qwjjm4j652ck9izaid7bz63s4hd5bnha&#45;libidn2&#45;2.3.7&#45;&gt;lai3ymn295qmvqdbgiqs06xl9l9j21w7&#45;libpsl&#45;0.21.5 -->
<g id="edge33" class="edge">
<title>qwjjm4j652ck9izaid7bz63s4hd5bnha-libidn2-2.3.7-&gt;lai3ymn295qmvqdbgiqs06xl9l9j21w7-libpsl-0.21.5</title>
<path fill="none" stroke="green" d="M359.58,-449.07C274.93,-448.16 95.51,-440.84 57,-396 4.92,-335.36 149.76,-315.88 233.75,-309.74"/>
<polygon fill="green" stroke="green" points="233.92,-313.24 243.66,-309.06 233.45,-306.25 233.92,-313.24"/>
</g>
<!-- qwjjm4j652ck9izaid7bz63s4hd5bnha&#45;libidn2&#45;2.3.7&#45;&gt;nqb2ns2d1lahnd5ncwmn6k84qfd7vx2k&#45;glibc&#45;2.40&#45;36 -->
<g id="edge39" class="edge">
<title>qwjjm4j652ck9izaid7bz63s4hd5bnha-libidn2-2.3.7-&gt;nqb2ns2d1lahnd5ncwmn6k84qfd7vx2k-glibc-2.40-36</title>
<path fill="none" stroke="green" d="M448.38,-441.71C526.09,-428.94 686.66,-402.55 772.66,-388.42"/>
<polygon fill="green" stroke="green" points="772.99,-391.91 782.29,-386.84 771.85,-385.01 772.99,-391.91"/>
</g>
<!-- qwjjm4j652ck9izaid7bz63s4hd5bnha&#45;libidn2&#45;2.3.7&#45;&gt;s0h8qpiflqcrgxd4fl3p1wyr371x274r&#45;curl&#45;8.11.1 -->
<g id="edge49" class="edge">
<title>qwjjm4j652ck9izaid7bz63s4hd5bnha-libidn2-2.3.7-&gt;s0h8qpiflqcrgxd4fl3p1wyr371x274r-curl-8.11.1</title>
<path fill="none" stroke="black" d="M398.68,-431.76C386.13,-387.18 360.39,-267.98 426,-216 472.67,-179.02 541.73,-167.44 588.45,-164.03"/>
<polygon fill="black" stroke="black" points="588.54,-167.53 598.31,-163.42 588.11,-160.54 588.54,-167.53"/>
</g>
<!-- r3b4raa1z7pj73j4sri2fpwp0rsn6zhb&#45;nghttp2&#45;1.64.0&#45;lib&#45;&gt;7p8814g62bybwa8blmaqr9piv3vjwan5&#45;curl&#45;8.11.1&#45;bin -->
<g id="edge12" class="edge">
<title>r3b4raa1z7pj73j4sri2fpwp0rsn6zhb-nghttp2-1.64.0-lib-&gt;7p8814g62bybwa8blmaqr9piv3vjwan5-curl-8.11.1-bin</title>
<path fill="none" stroke="burlywood" d="M919.78,-215.59C880.06,-190.18 806.12,-142.89 761.65,-114.44"/>
<polygon fill="burlywood" stroke="burlywood" points="763.68,-111.59 753.37,-109.15 759.91,-117.48 763.68,-111.59"/>
</g>
<!-- r3b4raa1z7pj73j4sri2fpwp0rsn6zhb&#45;nghttp2&#45;1.64.0&#45;lib&#45;&gt;s0h8qpiflqcrgxd4fl3p1wyr371x274r&#45;curl&#45;8.11.1 -->
<g id="edge50" class="edge">
<title>r3b4raa1z7pj73j4sri2fpwp0rsn6zhb-nghttp2-1.64.0-lib-&gt;s0h8qpiflqcrgxd4fl3p1wyr371x274r-curl-8.11.1</title>
<path fill="none" stroke="red" d="M887.69,-218.07C884.75,-217.36 881.84,-216.67 879,-216 813.63,-200.61 737.93,-184.11 689.3,-173.69"/>
<polygon fill="red" stroke="red" points="690.14,-170.29 679.63,-171.62 688.68,-177.13 690.14,-170.29"/>
</g>
<!-- s0h8qpiflqcrgxd4fl3p1wyr371x274r&#45;curl&#45;8.11.1&#45;&gt;7p8814g62bybwa8blmaqr9piv3vjwan5&#45;curl&#45;8.11.1&#45;bin -->
<g id="edge13" class="edge">
<title>s0h8qpiflqcrgxd4fl3p1wyr371x274r-curl-8.11.1-&gt;7p8814g62bybwa8blmaqr9piv3vjwan5-curl-8.11.1-bin</title>
<path fill="none" stroke="black" d="M660.26,-143.7C670.7,-135.2 683.46,-124.81 694.88,-115.51"/>
<polygon fill="black" stroke="black" points="696.97,-118.33 702.51,-109.3 692.55,-112.9 696.97,-118.33"/>
</g>
<!-- zs44kdd3k01schy32fa916pa17gr7y68&#45;openssl&#45;3.3.2&#45;&gt;7p8814g62bybwa8blmaqr9piv3vjwan5&#45;curl&#45;8.11.1&#45;bin -->
<g id="edge14" class="edge">
<title>zs44kdd3k01schy32fa916pa17gr7y68-openssl-3.3.2-&gt;7p8814g62bybwa8blmaqr9piv3vjwan5-curl-8.11.1-bin</title>
<path fill="none" stroke="red" d="M754.44,-287.85C748.95,-251.14 736.01,-164.66 729.27,-119.53"/>
<polygon fill="red" stroke="red" points="732.74,-119.1 727.8,-109.73 725.82,-120.14 732.74,-119.1"/>
</g>
<!-- zs44kdd3k01schy32fa916pa17gr7y68&#45;openssl&#45;3.3.2&#45;&gt;b4hmjzgk6w13525nwgb04xpmd71g4nbx&#45;krb5&#45;1.21.3&#45;lib -->
<g id="edge22" class="edge">
<title>zs44kdd3k01schy32fa916pa17gr7y68-openssl-3.3.2-&gt;b4hmjzgk6w13525nwgb04xpmd71g4nbx-krb5-1.21.3-lib</title>
<path fill="none" stroke="blue" d="M802.45,-296.77C851.85,-287.59 933.34,-271.72 1012.12,-252.62"/>
<polygon fill="blue" stroke="blue" points="1012.87,-256.04 1021.75,-250.26 1011.2,-249.24 1012.87,-256.04"/>
</g>
<!-- zs44kdd3k01schy32fa916pa17gr7y68&#45;openssl&#45;3.3.2&#45;&gt;lsvh9q7b0qcjwxd7m2ihby4r3hn0dw9i&#45;libssh2&#45;1.11.1 -->
<g id="edge36" class="edge">
<title>zs44kdd3k01schy32fa916pa17gr7y68-openssl-3.3.2-&gt;lsvh9q7b0qcjwxd7m2ihby4r3hn0dw9i-libssh2-1.11.1</title>
<path fill="none" stroke="burlywood" d="M711.41,-292.49C669.33,-280.93 606.59,-263.71 560.76,-251.13"/>
<polygon fill="burlywood" stroke="burlywood" points="561.82,-247.79 551.25,-248.52 559.97,-254.54 561.82,-247.79"/>
</g>
<!-- zs44kdd3k01schy32fa916pa17gr7y68&#45;openssl&#45;3.3.2&#45;&gt;s0h8qpiflqcrgxd4fl3p1wyr371x274r&#45;curl&#45;8.11.1 -->
<g id="edge51" class="edge">
<title>zs44kdd3k01schy32fa916pa17gr7y68-openssl-3.3.2-&gt;s0h8qpiflqcrgxd4fl3p1wyr371x274r-curl-8.11.1</title>
<path fill="none" stroke="green" d="M743.93,-287.66C730.12,-269.51 707.54,-240.33 687,-216 679.39,-206.99 670.82,-197.37 663.05,-188.83"/>
<polygon fill="green" stroke="green" points="665.67,-186.51 656.33,-181.51 660.51,-191.25 665.67,-186.51"/>
</g>
<!-- 4gk773fqcsv4fh2rfkhs9bgfih86fdq8&#45;gcc&#45;13.3.0&#45;lib&#45;&gt;afdaxacrxy5jgh5pmm3a2xn3hny6wdq7&#45;zstd&#45;1.5.6 -->
<g id="edge15" class="edge">
<title>4gk773fqcsv4fh2rfkhs9bgfih86fdq8-gcc-13.3.0-lib-&gt;afdaxacrxy5jgh5pmm3a2xn3hny6wdq7-zstd-1.5.6</title>
<path fill="none" stroke="green" d="M588.55,-287.7C596.98,-279.39 607.23,-269.28 616.5,-260.14"/>
<polygon fill="green" stroke="green" points="618.91,-262.68 623.57,-253.17 614,-257.7 618.91,-262.68"/>
</g>
<!-- bmjqxvy53752b3xfvbab6s87xq06hxbs&#45;gcc&#45;13.3.0&#45;libgcc -->
<g id="node17" class="node">
<title>bmjqxvy53752b3xfvbab6s87xq06hxbs-gcc-13.3.0-libgcc</title>
<polygon fill="#ff0000" stroke="black" points="627.98,-396 514.02,-396 514.02,-360 627.98,-360 627.98,-396"/>
<text text-anchor="middle" x="571" y="-373.8" font-family="Times,serif" font-size="14.00">gcc-13.3.0-libgcc</text>
</g>
<!-- bmjqxvy53752b3xfvbab6s87xq06hxbs&#45;gcc&#45;13.3.0&#45;libgcc&#45;&gt;4gk773fqcsv4fh2rfkhs9bgfih86fdq8&#45;gcc&#45;13.3.0&#45;lib -->
<g id="edge17" class="edge">
<title>bmjqxvy53752b3xfvbab6s87xq06hxbs-gcc-13.3.0-libgcc-&gt;4gk773fqcsv4fh2rfkhs9bgfih86fdq8-gcc-13.3.0-lib</title>
<path fill="none" stroke="magenta" d="M571,-359.7C571,-352.41 571,-343.73 571,-335.54"/>
<polygon fill="magenta" stroke="magenta" points="574.5,-335.62 571,-325.62 567.5,-335.62 574.5,-335.62"/>
</g>
<!-- 5mq02cggv5riwg4n7w4amddjgv6b5fnj&#45;keyutils&#45;1.6.3&#45;lib&#45;&gt;b4hmjzgk6w13525nwgb04xpmd71g4nbx&#45;krb5&#45;1.21.3&#45;lib -->
<g id="edge19" class="edge">
<title>5mq02cggv5riwg4n7w4amddjgv6b5fnj-keyutils-1.6.3-lib-&gt;b4hmjzgk6w13525nwgb04xpmd71g4nbx-krb5-1.21.3-lib</title>
<path fill="none" stroke="black" d="M1010.76,-287.7C1020.96,-279.2 1033.42,-268.81 1044.58,-259.51"/>
<polygon fill="black" stroke="black" points="1046.58,-262.41 1052.02,-253.32 1042.1,-257.03 1046.58,-262.41"/>
</g>
<!-- 8az76ng86zh4m4383qwf57kv9w0140vc&#45;oniguruma&#45;6.9.9&#45;lib&#45;&gt;jhw7aklgrc23125ysg1mc72y8zq0lndw&#45;jq&#45;1.7.1&#45;bin -->
<g id="edge25" class="edge">
<title>8az76ng86zh4m4383qwf57kv9w0140vc-oniguruma-6.9.9-lib-&gt;jhw7aklgrc23125ysg1mc72y8zq0lndw-jq-1.7.1-bin</title>
<path fill="none" stroke="black" d="M1300.82,-287.69C1295.68,-277.5 1289.43,-264.25 1285,-252 1277.83,-232.15 1271.93,-209.06 1267.9,-191.37"/>
<polygon fill="black" stroke="black" points="1271.37,-190.84 1265.8,-181.83 1264.53,-192.35 1271.37,-190.84"/>
</g>
<!-- 8az76ng86zh4m4383qwf57kv9w0140vc&#45;oniguruma&#45;6.9.9&#45;lib&#45;&gt;wb75941w6ygkc0ihl55gfsapcdrxm2hq&#45;jq&#45;1.7.1 -->
<g id="edge52" class="edge">
<title>8az76ng86zh4m4383qwf57kv9w0140vc-oniguruma-6.9.9-lib-&gt;wb75941w6ygkc0ihl55gfsapcdrxm2hq-jq-1.7.1</title>
<path fill="none" stroke="blue" d="M1313.46,-287.7C1314.94,-280.32 1316.7,-271.52 1318.35,-263.25"/>
<polygon fill="blue" stroke="blue" points="1321.75,-264.08 1320.28,-253.59 1314.89,-262.71 1321.75,-264.08"/>
</g>
<!-- wb75941w6ygkc0ihl55gfsapcdrxm2hq&#45;jq&#45;1.7.1&#45;&gt;jhw7aklgrc23125ysg1mc72y8zq0lndw&#45;jq&#45;1.7.1&#45;bin -->
<g id="edge27" class="edge">
<title>wb75941w6ygkc0ihl55gfsapcdrxm2hq-jq-1.7.1-&gt;jhw7aklgrc23125ysg1mc72y8zq0lndw-jq-1.7.1-bin</title>
<path fill="none" stroke="green" d="M1308.67,-215.7C1301.47,-207.56 1292.72,-197.69 1284.76,-188.7"/>
<polygon fill="green" stroke="green" points="1287.4,-186.4 1278.15,-181.24 1282.16,-191.04 1287.4,-186.4"/>
</g>
<!-- 6pqgj71r0850b0cd95yxx0d52zax016i&#45;libunistring&#45;1.2 -->
<g id="node21" class="node">
<title>6pqgj71r0850b0cd95yxx0d52zax016i-libunistring-1.2</title>
<polygon fill="#ff0000" stroke="black" points="419.36,-540 316.64,-540 316.64,-504 419.36,-504 419.36,-540"/>
<text text-anchor="middle" x="368" y="-517.8" font-family="Times,serif" font-size="14.00">libunistring-1.2</text>
</g>
<!-- 6pqgj71r0850b0cd95yxx0d52zax016i&#45;libunistring&#45;1.2&#45;&gt;lai3ymn295qmvqdbgiqs06xl9l9j21w7&#45;libpsl&#45;0.21.5 -->
<g id="edge30" class="edge">
<title>6pqgj71r0850b0cd95yxx0d52zax016i-libunistring-1.2-&gt;lai3ymn295qmvqdbgiqs06xl9l9j21w7-libpsl-0.21.5</title>
<path fill="none" stroke="burlywood" d="M362.29,-503.6C350.51,-467.81 323.72,-387.05 313,-360 309.73,-351.74 305.87,-342.89 302.21,-334.84"/>
<polygon fill="burlywood" stroke="burlywood" points="305.43,-333.47 298.06,-325.86 299.08,-336.4 305.43,-333.47"/>
</g>
<!-- 6pqgj71r0850b0cd95yxx0d52zax016i&#45;libunistring&#45;1.2&#45;&gt;qwjjm4j652ck9izaid7bz63s4hd5bnha&#45;libidn2&#45;2.3.7 -->
<g id="edge40" class="edge">
<title>6pqgj71r0850b0cd95yxx0d52zax016i-libunistring-1.2-&gt;qwjjm4j652ck9izaid7bz63s4hd5bnha-libidn2-2.3.7</title>
<path fill="none" stroke="blue" d="M376.9,-503.7C380.87,-495.98 385.63,-486.71 390.06,-478.11"/>
<polygon fill="blue" stroke="blue" points="393.05,-479.94 394.51,-469.45 386.83,-476.74 393.05,-479.94"/>
</g>
<!-- 8lwbq18vjygxgr7d8nrhsjsk1zq257gs&#45;publicsuffix&#45;list&#45;0&#45;unstable&#45;2024&#45;10&#45;25 -->
<g id="node22" class="node">
<title>8lwbq18vjygxgr7d8nrhsjsk1zq257gs-publicsuffix-list-0-unstable-2024-10-25</title>
<polygon fill="#ff0000" stroke="black" points="304.2,-396 65.8,-396 65.8,-360 304.2,-360 304.2,-396"/>
<text text-anchor="middle" x="185" y="-373.8" font-family="Times,serif" font-size="14.00">publicsuffix-list-0-unstable-2024-10-25</text>
</g>
<!-- 8lwbq18vjygxgr7d8nrhsjsk1zq257gs&#45;publicsuffix&#45;list&#45;0&#45;unstable&#45;2024&#45;10&#45;25&#45;&gt;lai3ymn295qmvqdbgiqs06xl9l9j21w7&#45;libpsl&#45;0.21.5 -->
<g id="edge31" class="edge">
<title>8lwbq18vjygxgr7d8nrhsjsk1zq257gs-publicsuffix-list-0-unstable-2024-10-25-&gt;lai3ymn295qmvqdbgiqs06xl9l9j21w7-libpsl-0.21.5</title>
<path fill="none" stroke="black" d="M210.98,-359.52C223.98,-350.76 239.91,-340.04 253.97,-330.58"/>
<polygon fill="black" stroke="black" points="255.76,-333.59 262.1,-325.11 251.85,-327.79 255.76,-333.59"/>
</g>
<!-- 2d5spnl8j5r4n1s4bj1zmra7mwx0f1n8&#45;xgcc&#45;13.3.0&#45;libgcc -->
<g id="node23" class="node">
<title>2d5spnl8j5r4n1s4bj1zmra7mwx0f1n8-xgcc-13.3.0-libgcc</title>
<polygon fill="#ff0000" stroke="black" points="890.48,-468 769.52,-468 769.52,-432 890.48,-432 890.48,-468"/>
<text text-anchor="middle" x="830" y="-445.8" font-family="Times,serif" font-size="14.00">xgcc-13.3.0-libgcc</text>
</g>
<!-- 2d5spnl8j5r4n1s4bj1zmra7mwx0f1n8&#45;xgcc&#45;13.3.0&#45;libgcc&#45;&gt;nqb2ns2d1lahnd5ncwmn6k84qfd7vx2k&#45;glibc&#45;2.40&#45;36 -->
<g id="edge38" class="edge">
<title>2d5spnl8j5r4n1s4bj1zmra7mwx0f1n8-xgcc-13.3.0-libgcc-&gt;nqb2ns2d1lahnd5ncwmn6k84qfd7vx2k-glibc-2.40-36</title>
<path fill="none" stroke="red" d="M830,-431.7C830,-424.41 830,-415.73 830,-407.54"/>
<polygon fill="red" stroke="red" points="833.5,-407.62 830,-397.62 826.5,-407.62 833.5,-407.62"/>
</g>
</g>
</svg>